<svg xmlns="http://www.w3.org/2000/svg" viewBox="0 0 512 512"><circle cx="256" cy="256" r="256" fill="#273b7a"/><path d="M511.612 270.029L363.891 122.308 226.938 287.934l-84.716 110.289L256 512c136.676 0 248.329-107.111 255.612-241.971z" fill="#121149"/><path d="M170.667 398.222h174.69c13.488 0 24.423-10.935 24.423-24.421V138.199c0-13.488-10.935-24.421-24.423-24.421h-174.69v284.444z" fill="#ffc61b"/><path d="M170.667 255.426v142.796h174.689c13.488 0 24.423-10.935 24.423-24.423V255.424H170.667v.002z" fill="#eaa22f"/><path fill="#d35933" d="M328.407 212.468l-29.606-14.098-29.608 14.098v-98.69h59.214z"/><path fill="#b54324" d="M297.95 113.778v84.997l.851-.405 29.606 14.098v-98.69z"/><path fill="#ff5419" d="M142.222 113.778h56.889v284.444h-56.889z"/><path fill="#c92f00" d="M142.222 255.431h56.889v142.791h-56.889z"/><path d="M227.556 297.374h113.778v10.343H227.556zm0 20.687h113.778v10.343H227.556z" fill="#ffedb5"/></svg>