<svg xmlns="http://www.w3.org/2000/svg" viewBox="0 0 512 512"><circle cx="256" cy="256" r="256" fill="#2196f3"/><path d="M502.748 324.386l-207.96-207.962-27.295 45.909-31.499 34.933 54.782 54.782-.369 12.498-36.993-36.992-25.571 55.453-21.751 31.691-30.255-30.255-25.822 50.604L165.968 351l-52.191 47.221L225.77 510.214c9.915 1.167 20 1.786 30.23 1.786 117.7 0 216.831-79.436 246.748-187.614z" fill="#004e64"/><path fill="#7ae582" d="M353.582 197.267l-58.794-80.843-58.794 80.843h29.618V397.36h58.353V197.267z"/><path fill="#25a18e" d="M294.788 116.424l-.286.395V397.36h29.461V197.267h29.619z"/><path fill="#fafaff" d="M191.354 227.556h62.061v170.667h-62.061z"/><path fill="#25a18e" d="M222.091 227.556h31.323v170.667h-31.323z"/><path fill="#9cf6f6" d="M336.162 284.444h62.061v113.778h-62.061z"/><path fill="#25a18e" d="M365.761 284.444h32.466v113.778h-32.466z"/><path fill="#9cf6f6" d="M113.778 284.444h62.061v113.778h-62.061z"/><path fill="#25a18e" d="M143.946 284.444h31.892v113.778h-31.892z"/></svg>