<svg xmlns="http://www.w3.org/2000/svg" viewBox="0 0 505 505"><circle cx="252.5" cy="252.5" r="252.5" fill="#324a5e"/><path fill="#ced5e0" d="M143 235l-12.5-9.6 81.9-106.2 79.8 77.2 75.7-60.5 9.8 12.3-86.5 69.2-77.1-74.6z"/><path d="M43.4 394.1C88.8 461 165.5 505 252.5 505s163.7-44 209.1-110.9H43.4z" fill="#2b3b4e"/><path d="M394.8 385.4h-49.3c-1.2 0-2.1-.9-2.1-2.1V204.6c0-1.2.9-2.1 2.1-2.1h49.3c1.2 0 2.1.9 2.1 2.1v178.7c0 1.1-.9 2.1-2.1 2.1zm-78.4 0h-49.3c-1.2 0-2.1-.9-2.1-2.1V257.1c0-1.2.9-2.1 2.1-2.1h49.3c1.2 0 2.1.9 2.1 2.1v126.2c-.1 1.1-1 2.1-2.1 2.1zm-78.5 0h-49.3c-1.2 0-2.1-.9-2.1-2.1V193.2c0-1.2.9-2.1 2.1-2.1h49.3c1.2 0 2.1.9 2.1 2.1v190.1c0 1.1-.9 2.1-2.1 2.1zm-78.4 0h-49.3c-1.2 0-2.1-.9-2.1-2.1v-93.7c0-1.2.9-2.1 2.1-2.1h49.3c1.2 0 2.1.9 2.1 2.1v93.7c0 1.1-1 2.1-2.1 2.1z" fill="#54c0eb"/><path fill="#ced5e0" d="M73.3 377h358.4v17.1H73.3z"/><circle cx="372.8" cy="142.1" r="29.4" fill="#e6e9ee"/><circle cx="372.8" cy="142.1" r="17.1" fill="#ff7058"/><circle cx="291.7" cy="204" r="29.4" fill="#e6e9ee"/><circle cx="291.7" cy="204" r="17.1" fill="#ff7058"/><circle cx="213.3" cy="131" r="29.4" fill="#e6e9ee"/><circle cx="213.3" cy="131" r="17.1" fill="#ff7058"/><circle cx="134.8" cy="230.2" r="29.4" fill="#e6e9ee"/><circle cx="134.8" cy="230.2" r="17.1" fill="#ff7058"/></svg>