<svg xmlns="http://www.w3.org/2000/svg" viewBox="0 0 512 512"><circle cx="256" cy="256" r="256" fill="#0575a5"/><path d="M506.872 307.164L382.659 182.956v-.044l-2.045-2.058c-1.874-1.272-4.654-1.869-8.3-1.869-7.283 0-17.761 2.317-30.5 6.538l-.015-.013-75.036-75.036c-.1-.125-.205-.22-.31-.32l-.046-.031a1.152 1.152 0 0 0-.269-.233 1.214 1.214 0 0 0-.55-.136c-5.389 0-8.428 43.156-9.748 89.219l-.013-.01c-.044 1.825-.084 3.694-.133 5.517-2.253.015-4.46.2-6.636.492-.724.095-1.418.259-2.135.387-1.446.259-2.872.543-4.265.919-.814.218-1.608.481-2.409.737a45.82 45.82 0 0 0-3.546 1.285c-.942.374-1.848.778-2.747 1.208-.366.177-.75.307-1.116.492-1.18.545-2.368 1.229-3.505 1.915.317-.182.632-.41.955-.589-39.629-19.93-73.741-32.338-90.568-32.338-5.386 0-8.806 1.324-10.358 3.927-3.597 6.246 5.752 19.151 24.174 35.341-1.644 2.099-2.598 4.744-2.598 7.621 0 .788.092 1.559.23 2.317.056.276.141.548.212.829.113.443.246.886.399 1.313.125.325.266.65.415.968.154.323.33.63.512.934.21.358.415.719.66 1.057.013.018.02.038.036.059l.056.064a12.995 12.995 0 0 0 2.696 2.685l.028.031 31.281 31.283.013.008c-39.78 27.999-63.503 52.242-58.117 61.652.182.315.415.589.64.868.274.32.548.591.87.822l176.133 176.136c100.41-20.298 179.509-99.351 199.868-199.739z" fill="#025e90"/><path d="M307.5 255.992c0 28.431-23.06 51.492-51.5 51.492-28.444 0-51.494-23.06-51.494-51.492 0-28.444 23.05-51.5 51.494-51.5 28.439.001 51.5 23.056 51.5 51.5z" fill="#ff8e31"/><path d="M246.871 223.222c5.064 5.066 3.876 14.464-2.647 20.997-6.525 6.525-15.921 7.703-20.984 2.637-5.071-5.071-3.884-14.461 2.639-20.984 6.523-6.529 15.928-7.719 20.992-2.65z" fill="#ffcd59"/><g fill="#fff"><path d="M265.587 400.704c-3.287-1.121-6.948-37.612-8.415-93.24-.415-15.734-.612-32.991-.612-51.466s.197-35.776.612-51.515c1.467-55.675 5.128-92.224 8.415-93.181 3.466 1.011 7.171 38.93 8.54 96.435.502.197 1.004.407 1.516.607-1.165-49.388-4.214-98.565-10.056-98.565-5.632 0-8.668 46.641-9.889 94.707-.456 17.761-.66 35.679-.66 51.515 0 15.841.205 33.761.66 51.466 1.224 48.069 4.257 94.766 9.889 94.766 5.842 0 8.891-49.283 10.056-98.668a9.588 9.588 0 0 1-1.516.607c-1.369 57.448-5.071 95.416-8.54 96.532z"/><path d="M307.523 255.852V256c0 .614 0 1.224-.056 1.774 47.613 31.419 79.386 61.015 73.859 70.554-1.219 2.081-4.27 3.146-9.037 3.146-16.548 0-50.048-12.132-89.129-31.775-12.831-6.4-26.281-13.647-39.936-21.514-13.665-7.921-26.701-15.941-38.682-23.905-47.616-31.47-79.383-61.066-73.848-70.602 1.208-2.076 4.262-3.146 9.024-3.146 16.553 0 49.943 12.132 89.032 31.78a20.346 20.346 0 0 1 1.518-.968c-39.631-19.953-73.743-32.33-90.55-32.33-5.379 0-8.827 1.313-10.35 3.909-6.139 10.662 25.277 40.502 75.118 73.236 11.73 7.662 24.463 15.48 37.96 23.296 13.407 7.764 26.555 14.876 39.191 21.166 39.69 20.004 73.792 32.387 90.647 32.387 5.384 0 8.827-1.329 10.353-3.907 6.132-10.673-25.279-40.515-75.114-73.249z"/><path d="M382.635 182.917c-1.526-2.596-4.969-3.909-10.353-3.909-16.855 0-50.906 12.378-90.55 32.33.512.294 1.014.612 1.533.968 39.03-19.645 72.474-31.78 89.016-31.78 4.767 0 7.823 1.07 9.037 3.146 5.525 9.539-26.245 39.132-73.856 70.554-11.978 7.964-25.014 16.033-38.674 23.903-13.647 7.864-27.103 15.122-39.99 21.571-39.091 19.64-72.53 31.77-89.083 31.77-4.762 0-7.816-1.065-9.024-3.146-5.535-9.541 26.232-39.13 73.841-70.551-.051-.556-.051-1.165-.051-1.777v-.148c-49.843 32.737-81.257 62.574-75.118 73.239 1.523 2.588 4.972 3.909 10.35 3.909 16.855 0 50.967-12.383 90.655-32.387 12.636-6.292 25.782-13.394 39.183-21.166 13.496-7.816 26.245-15.631 37.967-23.296 49.84-32.728 81.251-62.567 75.117-73.23z"/></g><path d="M378.749 210.161c0 6.991-5.676 12.692-12.677 12.692-6.996 0-12.682-5.701-12.682-12.692 0-7.022 5.686-12.685 12.682-12.685 7.002 0 12.677 5.663 12.677 12.685z" fill="#283a4d"/><path d="M365.486 202.772c1.516 1.508 1.226 4.27-.655 6.147-1.879 1.882-4.641 2.184-6.159.663-1.523-1.521-1.221-4.285.666-6.167 1.878-1.879 4.622-2.171 6.148-.643z" fill="#768ea6"/><path d="M176.31 225.892c0 7.002-5.688 12.692-12.685 12.692-7.017 0-12.692-5.693-12.692-12.692 0-7.014 5.676-12.677 12.692-12.677 6.994 0 12.685 5.665 12.685 12.677z" fill="#283a4d"/><path d="M163.041 218.504c1.516 1.51 1.216 4.28-.676 6.152-1.866 1.889-4.636 2.173-6.152.666-1.51-1.531-1.216-4.283.668-6.167 1.877-1.875 4.629-2.169 6.16-.651z" fill="#768ea6"/><path d="M270.833 350.131c0 6.994-5.699 12.685-12.69 12.685-7.002 0-12.692-5.691-12.692-12.685 0-7.02 5.688-12.685 12.692-12.685 6.991-.005 12.69 5.658 12.69 12.685z" fill="#283a4d"/><path d="M257.559 342.74c1.516 1.505 1.216 4.273-.666 6.147-1.869 1.882-4.636 2.179-6.152.668-1.518-1.531-1.224-4.288.668-6.17 1.867-1.881 4.627-2.17 6.15-.645z" fill="#768ea6"/></svg>