<svg xmlns="http://www.w3.org/2000/svg" viewBox="0 0 512 512"><circle cx="256" cy="256" r="256" fill="#386895"/><path d="M283.026 510.581c106.305-11.155 193.221-87.366 220.238-188.099L267.712 86.931l-15.734 55.291-67.232 190.923-42.524 36.633 140.804 140.803z" fill="#273b7a"/><circle cx="256" cy="99.556" r="17.239" fill="#ffc61b"/><path d="M256 82.316c-.193 0-.381.022-.574.029v34.42c.193.007.381.029.574.029 9.521 0 17.239-7.718 17.239-17.239S265.521 82.316 256 82.316z" fill="#eaa22f"/><circle cx="256" cy="376.673" r="31.892" fill="#ffc61b"/><path d="M256 344.781c-.193 0-.381.026-.574.029v63.726c.193.003.381.029.574.029 17.613 0 31.892-14.279 31.892-31.892S273.613 344.781 256 344.781z" fill="#eaa22f"/><path d="M142.222 341.333c15.71 0 28.444-12.734 28.444-28.444V200.516c0-46.795 37.086-85.944 83.875-86.726 47.795-.798 86.792 37.707 86.792 85.321v113.778c0 15.71 12.734 28.444 28.444 28.444v28.444H142.222v-28.444z" fill="#fee187"/><path d="M369.778 341.333c-15.71 0-28.444-12.734-28.444-28.444V199.111c0-47.318-38.517-85.623-85.907-85.313v255.979h114.352v-28.444z" fill="#ffc61b"/></svg>