<svg xmlns="http://www.w3.org/2000/svg" width="55" height="55" viewBox="0 0 128 128"><circle cx="64" cy="64" r="64" fill="#ffc107"/><path d="M124.613 84.538c-.047-.116-.092-.231-.141-.349-.068-.172-.139-.346-.209-.518-.066-.172-.137-.342-.207-.512-.066-.172-.137-.344-.207-.514-.066-.172-.137-.342-.207-.512-.066-.171-.137-.341-.207-.511-.066-.172-.137-.343-.207-.515-.066-.17-.137-.338-.205-.508a22.43 22.43 0 0 0-.209-.518 16.107 16.107 0 0 0-.207-.512 14.498 14.498 0 0 0-.207-.514 16.107 16.107 0 0 0-.207-.512 16.107 16.107 0 0 0-.207-.512 16.107 16.107 0 0 0-.207-.512 17.179 17.179 0 0 0-.207-.513c-.065-.17-.135-.34-.204-.508-.067-.173-.138-.345-.208-.517-.067-.172-.137-.342-.207-.512a23.146 23.146 0 0 0-.208-.516c-.065-.171-.136-.34-.206-.509a17.855 17.855 0 0 0-.208-.515 16.5 16.5 0 0 0-.206-.511 17.57 17.57 0 0 0-.206-.511 25.265 25.265 0 0 0-.208-.516 16.691 16.691 0 0 0-.207-.514c-.066-.17-.136-.34-.207-.511a18.484 18.484 0 0 0-.208-.515 22.806 22.806 0 0 0-.207-.512 21.111 21.111 0 0 0-.207-.513c-.065-.17-.135-.339-.204-.508a32.844 32.844 0 0 0-.209-.517 16.691 16.691 0 0 0-.207-.514 18.88 18.88 0 0 0-.207-.512 18.88 18.88 0 0 0-.207-.512c-.065-.172-.136-.342-.207-.513-.065-.172-.136-.342-.207-.512a13.094 13.094 0 0 0-.205-.507 14.46 14.46 0 0 0-.209-.52c-.065-.172-.136-.342-.207-.512a16.16 16.16 0 0 0-.207-.513 14.045 14.045 0 0 0-.207-.512 14.045 14.045 0 0 0-.207-.512 14.045 14.045 0 0 0-.207-.512c-.064-.17-.135-.339-.205-.508-.065-.173-.137-.345-.206-.517-.067-.172-.138-.342-.207-.512-.067-.171-.138-.341-.207-.51-.067-.173-.138-.344-.208-.515-.067-.172-.139-.343-.208-.513-.067-.171-.138-.341-.206-.51-.066-.173-.139-.344-.208-.515-.065-.169-.136-.337-.204-.505-.066-.174-.139-.347-.21-.519-.065-.171-.136-.34-.206-.51-3.014-7.747-10.279-13.368-18.938-13.976-2.225-1.302-4.803-2.087-7.563-2.087-.337 0-.668.025-1 .025H86c-5.516 0-10.206 3.727-12.496 8.457a10.974 10.974 0 0 0-9.506-5.47c-4.062 0-7.601 2.214-9.506 5.489-2.427-5.015-7.549-8.504-13.494-8.504-.337 0-.668.028-1 .028h.001c-2.385 0-4.613.894-6.564 2.036-11.42.803-20.437 10.327-20.437 21.951 0 2.474.414 4.849 1.167 7.067.243.791.53 1.563.857 2.315.13.347.27.688.417 1.023.129.346.268.686.414 1.021.13.345.268.685.415 1.021.129.343.266.681.412 1.015.131.348.271.688.418 1.026.129.345.267.683.413 1.019.13.344.268.684.414 1.02.129.344.266.68.411 1.014.131.347.271.688.418 1.027.13.346.27.688.417 1.025.128.339.264.674.408 1.005.131.347.271.688.418 1.028.13.344.268.684.415 1.02.13.346.269.688.416 1.023.128.34.265.676.409 1.008.131.348.271.69.419 1.031.111.293.226.586.349.875.201.6.425 1.188.675 1.763.131.349.271.692.419 1.03.129.344.267.684.413 1.018.13.344.268.686.415 1.021.128.34.266.678.41 1.01.131.351.272.693.42 1.035.129.342.267.68.412 1.014.128.341.266.679.411 1.011.13.349.27.69.417 1.028.13.345.268.685.415 1.021.13.345.269.687.416 1.021.128.342.266.678.411 1.012.13.347.27.688.417 1.024.13.345.268.685.414 1.021.13.345.269.685.415 1.021.129.343.267.682.412 1.016.112.297.228.592.352.883.202.604.427 1.192.679 1.771.129.341.266.679.411 1.011.131.351.272.692.42 1.034.129.343.267.681.412 1.013.128.343.266.679.41 1.013.131.346.271.688.418 1.026.13.345.268.685.415 1.021.13.346.269.688.416 1.022.128.34.266.679.41 1.011.114.303.238.603.365.897C42.646 125.221 52.998 128 64 128c28.159 0 52.053-18.193 60.613-43.462z" fill="#3c6997"/><circle cx="41" cy="56" r="15" fill="#b36435"/><path d="M41 41c-.337 0-.668.028-1 .05 7.816.517 14 7.003 14 14.95s-6.184 14.434-14 14.95c.332.022.663.05 1 .05 8.284 0 15-6.716 15-15s-6.716-15-15-15z" fill="#a65d31"/><path d="M41 69c-7.168 0-13-5.832-13-13s5.832-13 13-13 13 5.832 13 13-5.832 13-13 13z" fill="#e78244"/><circle cx="87" cy="56" r="15" fill="#b36435"/><path d="M87 41c-.337 0-.668.028-1 .05 7.816.517 14 7.003 14 14.95s-6.184 14.434-14 14.95c.332.022.663.05 1 .05 8.284 0 15-6.716 15-15s-6.716-15-15-15z" fill="#a65d31"/><path d="M87 69c7.168 0 13-5.832 13-13s-5.832-13-13-13-13 5.832-13 13 5.832 13 13 13z" fill="#e78244"/><circle cx="64" cy="55" r="11" fill="#1a1a1a"/><path d="M64 64c-4.962 0-9-4.038-9-9s4.038-9 9-9 9 4.038 9 9-4.038 9-9 9z" fill="#242424"/><path d="M64 50c-3 0-8 4-13 0v24c2 0 6-9 13-9s11 9 13 9V50c-5 4-10 0-13 0z" fill="#e78244"/><path d="M51 50v24c1.319 0 3.517-3.909 6.864-6.574a21.904 21.904 0 0 0-4.689-16.167A8.195 8.195 0 0 1 51 50z" fill="#d97a40"/><circle cx="64" cy="55" r="3" fill="#1a1a1a"/><circle cx="35" cy="65" r="22" fill="#b36435"/><path d="M35 43c-.167 0-.333.009-.5.013C46.418 43.28 56 53.017 56 65c0 11.982-9.582 21.721-21.5 21.986.167.005.333.014.5.014 12.15 0 22-9.85 22-22s-9.85-22-22-22z" fill="#a65d31"/><path d="M35 85c-11.028 0-20-8.973-20-20 0-11.028 8.972-20 20-20s20 8.972 20 20c0 11.027-8.972 20-20 20z" fill="#b36435"/><path d="M35 84c-10.477 0-19-8.523-19-19s8.523-19 19-19 19 8.523 19 19-8.523 19-19 19z" fill="#96e6d9"/><path d="M44.863 63.422l7.89-1.263c-1.221-7.649-7.264-13.692-14.913-14.913l-1.263 7.89a10.008 10.008 0 0 1 8.286 8.286z" opacity=".3" fill="#fff"/><path d="M25.827 61.047l-7.338-3.162c-3.068 7.112-1.205 15.452 4.599 20.582l5.294-5.984a10.011 10.011 0 0 1-2.555-11.436z" opacity=".2" fill="#fff"/><circle cx="35" cy="53" r="3" opacity=".4" fill="#91d2f2"/><circle cx="25" cy="65" r="2" opacity=".4" fill="#91d2f2"/><circle cx="33" cy="73" r="6" opacity=".2" fill="#91d2f2"/><circle cx="93" cy="65" r="22" fill="#b36435"/><path d="M93 43c-.335 0-.668.01-1 .025 11.686.523 21 10.16 21 21.975 0 11.814-9.314 21.452-21 21.975.332.015.665.025 1 .025 12.15 0 22-9.85 22-22s-9.85-22-22-22z" fill="#a65d31"/><path d="M93 85c-11.027 0-20-8.973-20-20 0-11.028 8.973-20 20-20s20 8.972 20 20c0 11.027-8.973 20-20 20z" fill="#b36435"/><path d="M93 84c-10.477 0-19-8.523-19-19s8.523-19 19-19 19 8.523 19 19-8.523 19-19 19z" fill="#96e6d9"/><path d="M102.863 63.422l7.89-1.263c-1.221-7.649-7.265-13.692-14.913-14.913l-1.263 7.89a10.007 10.007 0 0 1 8.286 8.286z" opacity=".3" fill="#fff"/><path d="M83.827 61.047l-7.339-3.162c-3.067 7.112-1.204 15.452 4.6 20.582l5.294-5.984a10.011 10.011 0 0 1-2.555-11.436z" opacity=".2" fill="#fff"/><circle cx="93" cy="53" r="3" opacity=".4" fill="#91d2f2"/><circle cx="83" cy="65" r="2" opacity=".4" fill="#91d2f2"/><circle cx="91" cy="73" r="6" opacity=".2" fill="#91d2f2"/></svg>