<svg xmlns="http://www.w3.org/2000/svg" viewBox="0 0 512 512"><circle cx="256" cy="256" r="256" fill="#e1effa"/><path d="M510.495 283.622L348.933 122.079c-.22-.22-.404-.443-.625-.66-.218-.218-.435-.407-.655-.625a8.943 8.943 0 0 0-5.56-1.938H169.876a8.765 8.765 0 0 0-6.216 2.563 8.776 8.776 0 0 0-2.563 6.216V384.37c0 1.938.66 3.948 1.938 5.563.22.218.404.435.625.653.105.113.218.218.325.294l119.619 119.613c119.33-12.798 214.088-107.557 226.891-226.871z" fill="#bcd4e8"/><path d="M350.907 203.354H161.091v181.002c0 2.255.858 4.503 2.586 6.216a8.76 8.76 0 0 0 6.216 2.573h172.216a8.75 8.75 0 0 0 6.213-2.573 8.765 8.765 0 0 0 2.586-6.216V203.354z" fill="#0684ba"/><path d="M246.902 244.073a1.54 1.54 0 0 1-1.539 1.531h-63.224a1.54 1.54 0 0 1-1.539-1.531v-20.342c0-.842.691-1.536 1.539-1.536h63.222c.847 0 1.539.694 1.539 1.536v20.342h.002z" fill="#f28124"/><path d="M213.752 222.195h-31.613c-.847 0-1.539.694-1.539 1.536v20.342c0 .842.691 1.531 1.539 1.531h31.611v-23.409h.002z" fill="#ff9d4d"/><path d="M289.797 244.073a1.54 1.54 0 0 1-1.539 1.531h-20.324a1.54 1.54 0 0 1-1.536-1.531v-20.342c0-.842.694-1.536 1.536-1.536h20.324c.842 0 1.539.694 1.539 1.536v20.342zm42.898 0c0 .842-.691 1.531-1.533 1.531h-20.329a1.542 1.542 0 0 1-1.539-1.531v-20.342c0-.842.694-1.536 1.539-1.536h20.329c.842 0 1.533.694 1.533 1.536v20.342zm-128.691 42.9c0 .842-.689 1.531-1.539 1.531h-20.324a1.54 1.54 0 0 1-1.539-1.531v-20.339c0-.842.691-1.531 1.539-1.531h20.324c.85 0 1.539.689 1.539 1.531v20.339zm42.898 0a1.54 1.54 0 0 1-1.539 1.531h-20.324a1.542 1.542 0 0 1-1.539-1.531v-20.339a1.54 1.54 0 0 1 1.539-1.531h20.324a1.54 1.54 0 0 1 1.539 1.531v20.339zm42.895 0a1.54 1.54 0 0 1-1.539 1.531h-20.324a1.54 1.54 0 0 1-1.536-1.531v-20.339a1.54 1.54 0 0 1 1.536-1.531h20.324c.842 0 1.539.689 1.539 1.531v20.339zm42.898 0c0 .842-.691 1.531-1.533 1.531h-20.329a1.542 1.542 0 0 1-1.539-1.531v-20.339a1.54 1.54 0 0 1 1.539-1.531h20.329c.842 0 1.533.689 1.533 1.531v20.339zm-128.691 42.891c0 .85-.689 1.539-1.539 1.539h-20.324a1.54 1.54 0 0 1-1.539-1.539v-20.332c0-.842.691-1.531 1.539-1.531h20.324c.85 0 1.539.689 1.539 1.531v20.332zm42.898 0c0 .85-.694 1.539-1.539 1.539h-20.324a1.544 1.544 0 0 1-1.539-1.539v-20.332a1.54 1.54 0 0 1 1.539-1.531h20.324a1.54 1.54 0 0 1 1.539 1.531v20.332z" fill="#f2f9ff"/><path d="M289.797 329.864c0 .85-.694 1.539-1.539 1.539h-20.324a1.542 1.542 0 0 1-1.536-1.539v-20.332a1.54 1.54 0 0 1 1.536-1.531h20.324c.842 0 1.539.689 1.539 1.531v20.332z" fill="#283a4d"/><path d="M204.004 372.767c0 .842-.689 1.531-1.539 1.531h-20.324a1.54 1.54 0 0 1-1.539-1.531v-20.332c0-.842.691-1.531 1.539-1.531h20.324c.85 0 1.539.689 1.539 1.531v20.332zm42.898 0a1.54 1.54 0 0 1-1.539 1.531h-20.324a1.542 1.542 0 0 1-1.539-1.531v-20.332a1.54 1.54 0 0 1 1.539-1.531h20.324a1.54 1.54 0 0 1 1.539 1.531v20.332z" fill="#f2f9ff"/><path d="M289.797 372.767a1.54 1.54 0 0 1-1.539 1.531h-20.324a1.54 1.54 0 0 1-1.536-1.531v-20.332a1.54 1.54 0 0 1 1.536-1.531h20.324c.842 0 1.539.689 1.539 1.531v20.332zm42.898 0c0 .842-.691 1.531-1.533 1.531h-20.329a1.542 1.542 0 0 1-1.539-1.531v-20.332a1.54 1.54 0 0 1 1.539-1.531h20.329c.842 0 1.533.689 1.533 1.531v20.332zm0-42.903c0 .85-.691 1.539-1.533 1.539h-20.329a1.544 1.544 0 0 1-1.539-1.539v-20.332a1.54 1.54 0 0 1 1.539-1.531h20.329c.842 0 1.533.689 1.533 1.531v20.332z" fill="#283a4d"/><path d="M350.907 127.652c0-2.25-.87-4.5-2.586-6.218a8.734 8.734 0 0 0-6.213-2.578H169.892c-2.25 0-4.503.858-6.216 2.578a8.734 8.734 0 0 0-2.586 6.218v75.699h189.816v-75.699z" fill="#03628a"/><path d="M182.139 190.725a7.726 7.726 0 0 1-5.486-2.268 7.707 7.707 0 0 1-2.268-5.486v-43.725c0-2.068.806-4.017 2.268-5.478a7.704 7.704 0 0 1 5.486-2.276h149.023a7.68 7.68 0 0 1 5.491 2.291 7.672 7.672 0 0 1 2.26 5.463v43.727a7.68 7.68 0 0 1-2.284 5.491 7.656 7.656 0 0 1-5.468 2.263H182.139v-.002z" fill="#283a4d"/><path d="M182.139 137.71a1.535 1.535 0 0 0-1.536 1.533v43.727c0 .392.151.786.448 1.088.302.297.696.448 1.088.448h149.023a1.55 1.55 0 0 0 1.085-.448c.297-.302.448-.696.448-1.088v-43.725c0-.394-.151-.783-.448-1.08a1.53 1.53 0 0 0-1.085-.453H182.139v-.002z" fill="#cee2f2"/><path d="M182.139 137.71a1.535 1.535 0 0 0-1.536 1.533v43.727c0 .392.151.786.448 1.088.302.297.696.448 1.088.448h74.509V137.71h-74.509z" fill="#f2f9ff"/><path fill="#283a4d" d="M161.091 199.68h189.824v7.314H161.091z"/></svg>