<svg xmlns="http://www.w3.org/2000/svg" width="216" height="54" viewBox="0 0 216 54"><g fill="#fff"><path d="M35 29v-5c0-.6-.4-1-1-1h-3v-3c0-.6-.4-1-1-1h-6c-.6 0-1 .4-1 1v3h-3c-.6 0-1 .4-1 1v5c0 .6.4 1 1 1h14c.6 0 1-.4 1-1zm-10-8h4v2h-4v-2z"/><path data-color="color-2" d="M20 32v2c0 .6.4 1 1 1h12c.6 0 1-.4 1-1v-2H20z"/></g><g fill="#fff"><path data-color="color-2" d="M75.2 24.6l3.4-3.4-1.9-1.9c-.4-.4-1-.4-1.4 0l-2 2c-.4.4-.4 1 0 1.4l1.9 1.9zm11.6 4.8l-3.4 3.4 1.9 1.9c.2.2.4.3.7.3h3v-3c0-.3-.1-.5-.3-.7l-1.9-1.9z"/><path d="M88.7 23.3l-4-4c-.4-.4-1-.4-1.4 0L82 20.6l1.7 1.7-1.4 1.4-1.7-1.7-1.6 1.6 1.7 1.7-1.4 1.4-1.7-1.7-1.6 1.6 1.7 1.7-1.4 1.4-1.7-1.7-1.3 1.3c-.4.4-.4 1 0 1.4l4 4c.4.4 1 .4 1.4 0l10-10c.4-.4.4-1 0-1.4z"/></g><path fill="#fff" d="M142 19h-14c-.6 0-1 .4-1 1v14c0 .6.4 1 1 1h14c.6 0 1-.4 1-1V20c0-.6-.4-1-1-1zm-9 4c.6 0 1 .4 1 1s-.4 1-1 1-1-.4-1-1 .4-1 1-1zm-3 8l2-4 2 2 3-4 3 6h-10zm65.682-9.682a4.5 4.5 0 0 0-6.364 0c-.121.121-.214.259-.318.389-.104-.13-.197-.268-.318-.389a4.5 4.5 0 0 0-6.364 6.364L189 34l6.682-6.318a4.5 4.5 0 0 0 0-6.364z"/></svg>