<svg xmlns="http://www.w3.org/2000/svg" viewBox="0 0 512 512"><circle cx="256" cy="256" r="256" fill="#ff8e31"/><path d="M351.444 135.749l-3.246-3.241c-.044 0-.044 0-.044-.044a39.805 39.805 0 0 0-5.878-4.168l-7.311-4.214c-8.376-4.81-18.652-6.474-28.739-3.743-10.092 2.683-18.143 9.257-23.002 17.631l-1.326 2.33-.015-.015-13.834-13.834-.136-.138c-.082-.079-.161-.164-.246-.243l-.133-.133c-.205-.182-.479-.284-.709-.443-.274-.164-.527-.374-.822-.494a5.2 5.2 0 0 0-1.987-.407h-16.054c-2.964 0-5.322 2.404-5.322 5.373v.742c0 .66.148 1.277.371 1.861.077.21.182.389.282.584.1.187.156.394.274.561l.323.333c.21.271.435.507.694.719l.366.387c.049.044.092.044.092.044l8.66 8.655v7.493c-3.105.049-6.167.269-9.208.55l-21.386-21.371c-.028-.038-.072-.074-.108-.108a37.427 37.427 0 0 0-4.403-3.866c-.287-.212-.584-.407-.87-.612a40.283 40.283 0 0 0-2.691-1.725c-.351-.207-.709-.404-1.075-.607-.96-.52-1.953-.983-2.964-1.418-.33-.143-.645-.302-.983-.435-1.37-.54-2.767-1.029-4.214-1.411-10.135-2.732-20.36-1.068-28.782 3.743l-7.273 4.214c-8.374 4.859-14.948 12.908-17.628 22.994-2.732 10.14-1.065 20.367 3.743 28.746l2.132 3.656 8.284 8.284.003.003c-18.45 21.01-29.668 48.548-29.668 78.715 0 37.673 17.449 71.222 44.705 93.112l-19.018 23.744 5.412 5.458 117.312 117.307c115.325-13.02 207.419-102.623 224.205-216.763L351.444 135.749z" fill="#ed7425"/><path d="M167.718 392.988l-5.414-5.437 21.652-27.039 10.809 10.824zm176.553 0l5.433-5.437-21.653-27.039-10.823 10.824z" fill="#5d6d7e"/><path d="M354.015 183.695l-72.886-42.092 2.097-3.638c4.849-8.399 12.895-14.94 22.994-17.649 10.099-2.708 20.352-1.065 28.751 3.786l7.283 4.196c8.399 4.854 14.938 12.908 17.656 22.999 2.703 10.109 1.052 20.36-3.791 28.746l-2.104 3.652z" fill="#34495e"/><path d="M293.425 142.083a3.437 3.437 0 0 1-2.204-.788 3.511 3.511 0 0 1-.533-4.936c4.339-5.366 10.179-9.16 16.891-10.952 8.323-2.237 17.321-1.044 24.758 3.249a3.52 3.52 0 0 1 1.293 4.803 3.51 3.51 0 0 1-4.797 1.285 25.73 25.73 0 0 0-19.425-2.55c-5.276 1.408-9.864 4.375-13.24 8.576a3.478 3.478 0 0 1-2.743 1.313z" fill="#5e7d9b"/><path fill="#5d6d7e" d="M314.255 160.74l6.63 3.822-3.822 6.63-6.63-3.821z"/><path d="M230.879 141.601l-72.883 42.092-2.112-3.651c-4.846-8.387-6.497-18.637-3.779-28.746 2.703-10.092 9.244-18.148 17.638-22.999l7.288-4.196c8.407-4.851 18.647-6.5 28.759-3.791 10.092 2.714 18.14 9.257 22.994 17.654l2.095 3.637z" fill="#34495e"/><path d="M161.51 175.037a3.527 3.527 0 0 1-3.277-2.24c-2.486-6.454-2.849-13.414-1.044-20.127 2.258-8.417 7.649-15.444 15.191-19.804 1.672-.975 3.827-.389 4.797 1.285a3.528 3.528 0 0 1-1.28 4.803c-5.921 3.412-10.156 8.934-11.932 15.542-1.405 5.271-1.126 10.721.819 15.77a3.496 3.496 0 0 1-2.012 4.531c-.412.161-.839.24-1.262.24z" fill="#5e7d9b"/><path d="M191.115 164.578l6.624-3.822 3.825 6.629-6.624 3.821zm62.581-28.54h4.6v15.301h-4.6z" fill="#5d6d7e"/><g fill="#34495e"><path d="M242.614 130.691c0 2.949 2.409 5.353 5.358 5.353h16.069a5.363 5.363 0 0 0 5.35-5.353v-.755c0-2.959-2.406-5.366-5.35-5.366h-16.069c-2.949 0-5.358 2.404-5.358 5.366v.755z"/><circle cx="256" cy="270.694" r="119.373"/></g><path d="M359.368 270.684c0 57.078-46.277 103.368-103.368 103.368-57.083 0-103.365-46.29-103.365-103.368 0-57.085 46.282-103.35 103.365-103.35 57.091 0 103.368 46.267 103.368 103.35z" fill="#fff"/><path d="M256 167.334c-38.641 0-72.31 21.215-90.04 52.636l89.935 50.56 86.595-56.417c-18.458-28.17-50.284-46.779-86.49-46.779z" fill="#0684ba"/><g fill="#283a4d"><path d="M253.107 177.613h5.786v19.837h-5.786zm-90.189 90.189h19.85v5.773h-19.85zm90.189 76.108h5.786v19.848h-5.786zm76.135-76.108h19.84v5.773h-19.84zm-25.577-32.123l-49.469 32.22c-1.539 1.024-1.966 3.075-.968 4.593a3.292 3.292 0 0 0 4.58.963l49.477-32.223-3.62-5.553z"/><path d="M257.615 267.812l-32.883-18.542-3.244 5.773 32.888 18.529c1.6.893 3.602.33 4.495-1.249a3.295 3.295 0 0 0-1.256-4.511z"/></g><g fill="#ff8e31"><path d="M239.25 343.782l21.097-85.24-2.535-.619-21.091 85.242z"/><path d="M262.94 270.684c0 3.835-3.105 6.948-6.94 6.948-3.835 0-6.938-3.113-6.938-6.948 0-3.819 3.103-6.945 6.938-6.945 3.835 0 6.94 3.126 6.94 6.945z"/></g><path d="M271.78 186.906l-1.938-.346 1.362-7.734 1.925.354zm14.309 3.99l-1.848-.671 2.673-7.359 1.848.672zm13.39 6.444l-1.684-.988 3.906-6.781 1.685.988zm12.073 8.663l-1.487-1.267 5.02-5.98 1.497 1.236zm10.41 10.613l-1.257-1.505 6.005-5.014 1.256 1.505zm8.386 12.293l-.99-1.703 6.781-3.943.99 1.702zm6.124 13.541l-.675-1.847 7.337-2.681.675 1.846zm3.665 14.387l-.338-1.917 7.713-1.372.336 1.93zm-.338 29.63l.346-1.951 7.703 1.375-.336 1.932zm-3.989 14.295l.675-1.833 7.336 2.702-.675 1.833zm-6.449 13.417l.99-1.695 6.76 3.947-.99 1.695zm-8.677 12.047l1.256-1.49 6.006 5.028-1.272 1.51zm-10.602 10.365l1.494-1.25 5.02 6.005-1.495 1.25zm-12.287 8.423l1.684-.986 3.914 6.784-1.692.999zm-13.548 6.121l1.833-.681 2.683 7.367-1.848.689zm-14.397 3.668l1.93-.31 1.349 7.703-1.925.331zm-29.609-.31l1.917.343-1.349 7.711-1.938-.358zm-14.313-4.026l1.84.668-2.685 7.375-1.846-.689zm-13.402-6.439l1.695.988-3.914 6.795-1.7-.999zm-12.054-8.65l1.488 1.257-5.05 5.978-1.489-1.257zm-10.405-10.634l1.249 1.5-5.99 5.03-1.265-1.515zm-8.386-12.278l.962 1.7-6.768 3.927-.978-1.708zm-6.132-13.54l.661 1.838-7.347 2.678-.666-1.841zm-3.696-14.41l.347 1.932-7.702 1.385-.347-1.932zm.356-29.596l-.349 1.917-7.708-1.359.359-1.93zm4.001-14.316l-.661 1.841-7.36-2.673.687-1.846zm6.433-13.396l-.975 1.702-6.787-3.927.994-1.71zm8.673-12.081l-1.256 1.485-6.006-5.013 1.28-1.5zm10.627-10.391l-1.49 1.267-5.041-6.011 1.503-1.236zm12.278-8.384l-1.695.975-3.924-6.768 1.712-.988zm13.532-6.131l-1.833.66-2.683-7.339 1.854-.668zm14.405-3.661l-1.925.302-1.362-7.682 1.938-.354z" fill="#283a4d"/><path d="M340.736 211.507a89.296 89.296 0 0 0-5.76-7.475 97.03 97.03 0 0 0-2.074-2.381 80.88 80.88 0 0 0-4.352-4.557 104.693 104.693 0 0 0-4.608-4.275 45.834 45.834 0 0 0-2.406-2.022 63.41 63.41 0 0 0-2.458-1.971 46.922 46.922 0 0 0-1.789-1.357 56.323 56.323 0 0 0-1.459-1.05 101.239 101.239 0 0 0-18.739-10.573 80.774 80.774 0 0 0-2.611-1.101 91.838 91.838 0 0 0-7.734-2.739 40.107 40.107 0 0 0-2.301-.691 101.06 101.06 0 0 0-20.582-3.661c-.668-.051-1.334-.102-1.974-.154-.87-.026-1.715-.077-2.586-.102a139.923 139.923 0 0 0-3.302-.051c-1.408 0-2.79.026-4.173.077-.998.051-1.997.102-2.995.179-1.126.077-2.278.154-3.405.282-.41.051-.845.077-1.254.128-.717.077-1.434.179-2.15.282-2.688.358-5.35.819-7.962 1.382-.717.154-1.434.333-2.15.486a91.91 91.91 0 0 0-3.789.998c-.947.256-1.894.538-2.842.845-.973.282-1.946.614-2.918.947-.563.179-1.126.384-1.69.589-.87.307-1.715.64-2.56.973-.973.384-1.946.768-2.918 1.203-.589.23-1.152.486-1.715.768-.768.333-1.51.666-2.227 1.024a1.223 1.223 0 0 0-.179.077 114.898 114.898 0 0 0-4.326 2.227c-.666.358-1.331.742-1.997 1.126a91.204 91.204 0 0 0-6.579 4.096c-.666.435-1.331.896-1.997 1.382-.538.358-1.024.717-1.536 1.101a99.453 99.453 0 0 0-5.197 4.122 99.713 99.713 0 0 0-11.904 11.802 104.655 104.655 0 0 0-11.571 16.538l4.326 2.432c16.896-29.901 48.998-50.125 85.709-50.125 34.381 0 64.691 17.741 82.33 44.544l4.173-2.714a48.525 48.525 0 0 0-1.769-2.611z" fill="#0578ab"/><path d="M359.373 270.694c0 57.062-46.285 103.347-103.373 103.347s-103.373-46.285-103.373-103.347c0-25.677 9.37-49.178 24.909-67.251a104.655 104.655 0 0 0-11.571 16.538l4.326 2.432c-8.064 14.285-12.672 30.746-12.672 48.282 0 54.244 44.134 98.381 98.381 98.381s98.406-44.134 98.406-98.381c0-19.891-5.916-38.374-16.077-53.862l4.173-2.714c10.676 16.255 16.871 35.686 16.871 56.575z" fill="#e5e9ec"/></svg>