<svg xmlns="http://www.w3.org/2000/svg" viewBox="0 0 512 512"><circle cx="256" cy="256" r="256" fill="#324a5e"/><path d="M272.236 511.472c129.586-8.113 233.031-112.614 239.445-242.652L393.53 150.669l-135.228 91.539-152.759 102.573 166.693 166.691z" fill="#2b3b4e"/><path d="M381.702 202.559H244.077c-9.125 0-16.52-7.397-16.52-16.522v-23.845c0-9.125 7.397-16.522 16.52-16.522h137.625c9.125 0 16.52 7.397 16.52 16.522v23.847c0 9.123-7.397 16.52-16.52 16.52z" fill="#f9b54c"/><path d="M381.702 259.448H244.077c-9.125 0-16.52-7.397-16.52-16.52v-23.847c0-9.125 7.397-16.522 16.52-16.522h137.625c9.125 0 16.52 7.397 16.52 16.522v23.847c0 9.123-7.397 16.52-16.52 16.52z" fill="#ffd15d"/><path d="M381.702 316.337H244.077c-9.125 0-16.52-7.397-16.52-16.52V275.97c0-9.125 7.397-16.52 16.52-16.52h137.625c9.125 0 16.52 7.397 16.52 16.52v23.847c0 9.122-7.397 16.52-16.52 16.52z" fill="#f9b54c"/><path d="M381.702 373.226H244.077c-9.125 0-16.52-7.397-16.52-16.52v-23.847c0-9.125 7.397-16.52 16.52-16.52h137.625c9.125 0 16.52 7.397 16.52 16.52v23.847c0 9.122-7.397 16.52-16.52 16.52z" fill="#ffd15d"/><path d="M381.702 145.67h-69.385v56.889h69.385c9.125 0 16.52-7.397 16.52-16.52V162.19c0-9.123-7.397-16.52-16.52-16.52z" fill="#f4a200"/><path d="M381.702 202.559h-69.385v56.889h69.385c9.125 0 16.52-7.397 16.52-16.52v-23.847c0-9.125-7.397-16.522-16.52-16.522z" fill="#f9b54c"/><path d="M381.702 259.448h-69.385v56.889h69.385c9.125 0 16.52-7.397 16.52-16.52V275.97c0-9.125-7.397-16.522-16.52-16.522z" fill="#f4a200"/><path d="M381.702 316.337h-69.385v56.889h69.385c9.125 0 16.52-7.397 16.52-16.52v-23.847c0-9.125-7.397-16.522-16.52-16.522z" fill="#f9b54c"/><circle cx="177.562" cy="279.273" r="78.438" fill="#ffd15d"/><g fill="#f9b54c"><path d="M177.562 200.835c-.193 0-.381.014-.574.014v156.846c.191.002.381.014.574.014 43.32 0 78.438-35.118 78.438-78.438s-35.118-78.436-78.438-78.436z"/><path d="M177.562 376.673c-53.707 0-97.401-43.694-97.401-97.401s43.694-97.401 97.401-97.401 97.401 43.694 97.401 97.401-43.694 97.401-97.401 97.401zm0-156.875c-32.794 0-59.475 26.681-59.475 59.475s26.681 59.475 59.475 59.475 59.475-26.681 59.475-59.475-26.681-59.475-59.475-59.475z"/></g><path d="M177.562 181.872c-.193 0-.381.014-.574.014v37.926c.191-.002.381-.014.574-.014 32.794 0 59.475 26.681 59.475 59.475s-26.681 59.475-59.475 59.475c-.193 0-.381-.012-.574-.014v37.926c.191.002.381.014.574.014 53.707 0 97.401-43.694 97.401-97.401s-43.694-97.401-97.401-97.401z" fill="#f4a200"/></svg>