<svg xmlns="http://www.w3.org/2000/svg" viewBox="0 0 512 512"><circle cx="256" cy="256" r="256" fill="#84dbff"/><path d="M201.554 262.465l-2.443 144.377L300.42 508.151c111.518-19.511 198.206-111.187 210.163-225.125L369.778 142.222l-166.8 78.691-1.21 28.922-.214 12.63z" fill="#31bafd"/><path d="M10.231 327.83C41.282 434.247 139.554 512 256 512s214.718-77.753 245.769-184.17H10.231z" fill="#324a5e"/><path fill="#c1321f" d="M369.778 256H199.111V142.222h170.667l-28.445 56.889z"/><path fill="#a82116" d="M341.549 198.68H199.111V256h170.667l-28.445-56.889z"/><path d="M199.111 406.842a8.619 8.619 0 0 1-8.62-8.62v-256c0-4.761 3.858-8.62 8.62-8.62s8.62 3.858 8.62 8.62v256a8.62 8.62 0 0 1-8.62 8.62z" fill="#cfdbe6"/></svg>