<svg xmlns="http://www.w3.org/2000/svg" viewBox="0 0 512 512"><circle cx="256" cy="256" r="256" fill="#34495e"/><path d="M511.529 270.961L385.503 144.932h-66.634l-19.709-19.717h-83.31l-24.65-24.648h-17.733V118.3l2.888 2.885v263.647h-2.888v17.741h-17.741v8.85l100.572 100.57c136.224-.162 247.492-106.714 255.231-241.032z" fill="#203549"/><path fill="#f2f9ff" d="M176.351 118.298h11.965V384.82h-11.965z"/><path d="M173.476 100.582h17.731v17.733h-17.731zm0 284.237h17.731v17.748h-17.731z" fill="#cee2f2"/><path fill="#b8d1e6" d="M155.732 402.56h53.207v8.863h-53.207z"/><path fill="#ff8e31" d="M385.518 243.914h-110.85v-99h110.85l-34.693 49.487z"/><path fill="#ed7425" d="M302.664 144.914h-27.996v99h45.498z"/><path fill="#ff9d4d" d="M188.314 125.225h110.848v98.985H188.314z"/><path fill="#f28124" d="M299.174 224.207h-24.506v19.715z"/></svg>