<svg xmlns="http://www.w3.org/2000/svg" viewBox="0 0 503.731 503.731"><path d="M464.323 188.258C464.323 84.283 379.646 0 275.277 0c-89.009 0-163.84 61.44-183.532 144.148v.788c-1.182 5.514-2.363 10.634-3.151 16.148-1.575 7.877-3.938 16.542-6.695 20.874a63774.924 63774.924 0 0 1-40.172 69.317c-4.726 7.877-1.969 18.117 5.908 22.843l39.385 23.631v83.495c0 8.665 7.089 15.754 15.754 15.754h74.043v90.585c0 8.665 7.089 16.148 15.754 16.148l169.354-57.895c8.271-2.757 15.754-7.089 15.754-16.148v-84.283c51.198-33.479 86.644-91.374 86.644-157.147z" fill="#f2f2f2"/><path d="M294.575 111.458c.394-3.151.394-6.302 0-9.058l-9.058-2.363-2.363-10.24 6.695-6.695c-1.182-2.757-2.757-5.514-4.726-7.877l-9.058 2.363-7.089-7.483 2.363-9.058c-2.363-1.575-5.12-3.151-7.877-4.726l-6.302 6.695-9.846-2.757-2.364-9.059h-.788c-2.757-.394-5.514-.394-8.665 0l-2.363 9.058-9.846 2.757-6.695-6.695c-2.757 1.182-5.514 2.757-7.877 4.726l2.363 9.058-7.483 7.089-9.058-2.363c-1.575 2.363-3.151 5.12-4.726 7.877l6.695 6.695-2.757 9.846-9.058 1.969c-.394 3.151-.394 6.302 0 9.058l9.058 2.363 2.757 9.846-6.695 6.695c1.182 2.757 2.757 5.514 4.726 7.877l9.058-2.363 7.089 7.483-2.363 9.058c2.363 1.575 5.12 3.151 7.877 4.726l6.695-6.695 9.846 2.757 2.363 9.058h.788c2.757.394 5.514.394 8.665 0l2.363-9.058 9.846-2.757 6.695 6.695c2.757-1.182 5.514-2.757 7.877-4.332l-2.363-9.058 7.483-7.089 9.058 2.363c1.575-2.363 3.151-5.12 4.726-7.877l-7.089-6.302 2.757-9.846 8.666-2.361zM246.92 133.12c-14.572 3.938-29.932-4.726-33.871-19.692-3.938-14.572 4.726-29.932 19.692-33.871 14.572-3.938 29.932 4.726 33.871 19.692 3.938 14.573-4.726 29.933-19.692 33.871z" fill="#415f6f"/><path d="M409.578 198.498L421 194.56c0-3.938 0-7.877-.788-11.815l-11.815-2.363-4.332-12.603 7.877-9.058c-1.969-3.545-3.938-6.695-6.695-9.846l-11.422 3.938-9.846-8.665 2.363-11.815c-3.545-1.969-7.089-3.938-10.634-5.12l-7.877 9.058-12.997-2.757-3.938-11.422c-3.938 0-7.877 0-11.815.788l-2.363 11.815-12.603 4.332-9.058-7.877c-3.545 1.969-6.695 3.938-9.846 6.695l3.938 11.422-8.665 9.846-11.815-2.363c-1.969 3.545-3.938 7.089-5.12 10.634l9.058 7.877-2.757 12.997-11.422 3.938c0 3.938 0 7.877.788 11.815l11.815 2.363 4.332 12.603-7.877 9.058c1.969 3.545 3.938 6.695 6.695 9.846l11.422-3.938 9.846 8.665-2.363 11.815c3.545 1.969 7.089 3.938 10.634 5.12l7.877-9.058 12.997 2.757 3.938 11.422c3.938 0 7.877 0 11.815-.788l2.363-11.815 12.603-4.332 9.058 7.877c3.545-1.969 6.695-3.938 9.846-6.695l-3.938-11.422 8.665-9.846 11.815 2.363c1.969-3.545 3.938-7.089 5.12-10.634l-9.058-7.877 2.757-12.997zm-59.471 29.933c-19.692 0-35.446-15.754-35.446-35.446s15.754-35.446 35.446-35.446 35.446 15.754 35.446 35.446-15.753 35.446-35.446 35.446z" fill="#e2574c"/><path d="M270.157 239.065a38.832 38.832 0 0 0 1.182-9.452l-9.058-3.938-1.182-10.634 7.877-5.908c-.788-3.151-1.969-5.908-3.545-8.665l-9.846 1.575-6.302-8.665 3.938-9.058-.394-.394c-2.363-1.969-4.726-3.938-7.089-5.514l-7.877 5.908-9.846-3.938-1.182-9.452a38.832 38.832 0 0 0-9.452-1.182l-3.545 8.665-10.634 1.182-5.908-7.877c-3.151.788-5.908 1.969-8.665 3.545l1.182 9.452-8.665 6.302-9.058-3.938c-2.363 2.363-3.938 4.726-5.908 7.483l5.908 7.877-3.938 10.24-9.452 1.182a38.832 38.832 0 0 0-1.182 9.452l9.058 3.938 1.182 10.634-7.877 5.908c.788 3.151 1.969 5.908 3.545 8.665l9.452-1.182 6.302 8.665-3.938 9.058.394.394c2.363 1.969 4.726 3.938 7.089 5.514l7.877-5.908 9.846 4.332 1.182 9.452a38.832 38.832 0 0 0 9.452 1.182l3.545-8.665 10.634-1.182 5.908 7.877c3.151-.788 5.908-1.969 8.665-3.545l-.788-10.634 8.665-6.302 9.058 3.938c2.363-2.363 3.938-4.726 5.908-7.483l-5.908-7.877 4.332-9.846 9.058-1.181zm-27.57-4.727c-4.332 15.754-20.48 25.206-36.234 20.874s-25.206-20.48-20.874-36.234 20.48-25.206 36.234-20.874c15.754 3.939 25.207 20.481 20.874 36.234z" fill="#638090"/></svg>