<svg xmlns="http://www.w3.org/2000/svg" viewBox="0 0 512 512"><circle cx="256" cy="256" r="256" fill="#273b7a"/><path d="M304.752 507.344c114.907-22.157 202.435-121.135 207.038-241.385L399.563 153.733l-47.599 59.001-149.122 23.446-59.318-59.318-19.463 10.988 54.074 54.074-128.204 10.599 254.821 254.821z" fill="#121149"/><path d="M131.036 180.874l14.72 5.584a69.04 69.04 0 0 0 28.344 4.377l72.607-4.079 134.066 117.65c5.172 4.539 4.858 12.685-.646 16.813l-2.236 1.676a10.836 10.836 0 0 1-13.241-.184l-95.661-75.991a3.836 3.836 0 0 0-5.098.291l-1.458 1.458a3.837 3.837 0 0 0 .272 5.672l76.436 62.997c5.042 4.156 5.287 11.797.519 16.267a10.835 10.835 0 0 1-13.986.707l-80.951-61.802a3.835 3.835 0 0 0-4.67 6.084l64.872 50.055c5.701 4.399 5.604 13.031-.191 17.303l-.586.431a10.834 10.834 0 0 1-12.91-.041l-66.127-49.381a3.835 3.835 0 0 0-5.241.617l-.007.009a3.836 3.836 0 0 0 .624 5.508l44.863 34.126c5.017 3.815 5.73 11.09 1.552 15.808l-1.583 1.788a10.835 10.835 0 0 1-13.534 2.196L89.864 263.215l41.172-82.341z" fill="#ffedb5"/><path d="M89.865 263.216l161.921 93.596a10.837 10.837 0 0 0 13.534-2.196l1.583-1.788c4.179-4.718 3.465-11.993-1.552-15.808l-44.863-34.126a3.836 3.836 0 0 1-.624-5.508l.007-.009a3.835 3.835 0 0 1 5.241-.617l66.127 49.381a10.83 10.83 0 0 0 12.91.041l.586-.431c.105-.078.195-.167.297-.247L120.16 202.628l-30.295 60.588z" fill="#fee187"/><path d="M390.808 174.013l44.111 81.361-62.736 41.662-102.928-89.695-64.424 24.91a16.032 16.032 0 0 1-16.4-2.944c-8.613-7.618-6.637-21.559 3.753-26.486l85.685-40.627a14.168 14.168 0 0 1 12.173.017l50.853 24.288a23.651 23.651 0 0 0 17.903 1.017l32.01-13.503z" fill="#ffc61b"/><path fill="#eaa22f" d="M330.733 260.915l41.45 36.121 62.736-41.662-23.526-43.394z"/><path fill="#ff7f4f" d="M91.45 274.625l-41.528-22.112 52.059-97.771 41.528 22.112z"/><path d="M49.931 252.523l41.533 22.114 26.299-49.395-40.651-23.766zm310.803-72.232l38.842-26.548 62.504 91.446-38.842 26.549z" fill="#d35933"/><path fill="#b54324" d="M462.069 245.182l-30.896-45.202-40.288 24.442 32.337 47.312z"/></svg>