<svg xmlns="http://www.w3.org/2000/svg" viewBox="0 0 512 512"><circle cx="256" cy="256" r="256" fill="#273b7a"/><path d="M160.827 409.59l102.479 102.3c135.394-3.796 244.483-112.712 248.563-248.036L353.904 105.889 256 114.223l-94.751 12.3 89.005 89.005v30.573l-50.102-9.547 50.102 50.102.431 29.518-89.858 93.416z" fill="#121149"/><path d="M335.3 178.438v-54.605H176.7v54.605c0 36.028 22.531 66.6 53.827 77.562-31.294 10.962-53.826 41.534-53.827 77.562v54.605h158.6v-54.605c0-36.028-22.531-66.6-53.827-77.562 31.295-10.962 53.827-41.534 53.827-77.562z" fill="#71e2ef"/><path d="M335.3 178.438v-54.605h-78.724v264.332H335.3v-54.603c0-36.028-22.531-66.6-53.827-77.562 31.295-10.962 53.827-41.534 53.827-77.562z" fill="#38c6d9"/><path fill="#ffedb5" d="M195.524 388.167h120.952l-50.632-67.972v-63.49l42.221-42.222h-96.921l37.247 42.222v63.49z"/><path fill="#fee187" d="M265.844 320.195v-63.49l42.221-42.222h-51.489v173.684h59.9z"/><path d="M339.304 131.043H172.696c-9.29 0-16.822-7.532-16.822-16.822s7.532-16.822 16.822-16.822h166.609c9.29 0 16.822 7.532 16.822 16.822-.001 9.292-7.533 16.822-16.823 16.822z" fill="#d35933"/><path d="M339.304 97.401h-82.73v33.642h82.73c9.29 0 16.822-7.532 16.822-16.822s-7.532-16.82-16.822-16.82z" fill="#b54324"/><path d="M339.304 414.599H172.696c-9.29 0-16.822-7.532-16.822-16.822s7.532-16.822 16.822-16.822h166.609c9.29 0 16.822 7.532 16.822 16.822-.001 9.291-7.533 16.822-16.823 16.822z" fill="#d35933"/><path d="M339.304 380.957h-82.73v33.642h82.73c9.29 0 16.822-7.532 16.822-16.822 0-9.288-7.532-16.82-16.822-16.82z" fill="#b54324"/></svg>