<svg xmlns="http://www.w3.org/2000/svg" viewBox="0 0 512 512"><circle cx="256" cy="256" r="256" fill="#31bafd"/><path d="M507.089 306.078l-138.5-138.5-114.887 124.05-110.29 105.108 115.231 115.231c123.066-1.246 225.326-89.317 248.446-205.889z" fill="#2b9ed8"/><path fill="#e9eff4" d="M316.276 115.264H143.412v281.472h225.176V167.577z"/><path fill="#cfdbe6" d="M368.588 167.577l-52.312-52.313h-60.85v281.472h113.162z"/><path fill="#b8c9d9" d="M316.276 167.577h52.312l-52.312-52.313z"/><path d="M187.037 374.039c-1.979 0-3.987-.486-5.841-1.515-5.829-3.231-7.937-10.576-4.705-16.405l41.369-74.635c3.232-5.83 10.576-7.939 16.405-4.705 5.829 3.231 7.937 10.576 4.705 16.405l-41.369 74.635a12.062 12.062 0 0 1-10.564 6.22z" fill="#804000"/><path d="M234.267 276.782c-.183-.102-.372-.183-.559-.274l-52.957 95.739c.15.091.291.191.445.278a12.066 12.066 0 0 0 16.405-4.703l41.369-74.635c3.232-5.831 1.124-13.175-4.703-16.405z" fill="#57442f"/><circle cx="249.104" cy="250.018" r="51.709" fill="#fff"/><path d="M274.168 204.793c-.203-.112-.41-.212-.615-.321l-50.04 90.465c.176.1.343.207.519.305 24.978 13.845 56.448 4.82 70.292-20.158 13.847-24.976 4.822-56.448-20.156-70.291z" fill="#e9eff4"/><path d="M248.999 310.336a59.946 59.946 0 0 1-29.144-7.554c-29.094-16.125-39.645-52.915-23.519-82.01 7.811-14.095 20.645-24.304 36.135-28.744 15.491-4.439 31.784-2.584 45.875 5.227 29.094 16.125 39.645 52.914 23.519 82.01-11.002 19.852-31.631 31.071-52.866 31.071zm.162-103.428c-3.987 0-7.999.559-11.938 1.688-11.064 3.174-20.228 10.464-25.81 20.53-11.517 20.782-3.982 47.057 16.798 58.577 10.068 5.58 21.704 6.906 32.766 3.732 11.064-3.172 20.228-10.462 25.81-20.528 5.579-10.068 6.904-21.704 3.732-32.768-3.174-11.064-10.462-20.228-20.53-25.809-6.481-3.591-13.615-5.422-20.828-5.422z" fill="#b97850"/><path d="M278.347 197.254c-.205-.114-.415-.214-.622-.324l-8.345 15.088c.202.109.41.202.61.314 10.068 5.579 17.356 14.745 20.53 25.809 3.172 11.064 1.846 22.7-3.732 32.768-5.58 10.066-14.746 17.356-25.81 20.528-11.062 3.174-22.699 1.848-32.766-3.732-.179-.1-.35-.209-.526-.309l-8.344 15.084c.174.098.34.205.514.302A59.95 59.95 0 0 0 249 310.336c21.233 0 41.862-11.219 52.865-31.07 16.127-29.098 5.576-65.888-23.518-82.012z" fill="#935635"/></svg>