<svg xmlns="http://www.w3.org/2000/svg" viewBox="0 0 512 512"><path d="M496.3 141.692c9.686 4.837 15.7 14.57 15.7 25.386 0 10.827-6.014 20.561-15.688 25.398h-.012l-38.12 19.066 38.12 19.066c9.686 4.837 15.7 14.57 15.7 25.398 0 10.816-6.014 20.549-15.688 25.386l-38.132 19.066 38.12 19.066c9.674 4.825 15.688 14.558 15.7 25.374 0 10.828-6.014 20.572-15.688 25.409l-215.22 107.604c-7.85 3.931-16.477 5.896-25.092 5.896-8.615 0-17.23-1.965-25.092-5.885L15.7 370.305C6.014 365.468 0 355.723 0 344.896c.012-10.816 6.026-20.549 15.7-25.386l38.12-19.054L15.7 281.39C6.014 276.553 0 266.82 0 256.004c0-10.828 6.014-20.561 15.688-25.398L53.82 211.54 15.7 192.475C6.014 187.638 0 177.905 0 167.078c0-10.816 6.014-20.549 15.688-25.386l215.22-107.604c15.712-7.85 34.471-7.862 50.183-.012L496.3 141.692zm-7.838 25.397c0-1.13-.353-3.178-2.695-4.355L270.57 55.131c-4.566-2.271-9.568-3.413-14.57-3.413s-10.004 1.142-14.57 3.425L26.221 162.735c-2.33 1.177-2.683 3.225-2.683 4.355 0 1.118.353 3.166 2.695 4.343L241.43 279.036c9.121 4.555 20.019 4.555 29.14-.012l215.197-107.592c2.342-1.177 2.695-3.225 2.695-4.343zm0 88.915c0-1.13-.353-3.178-2.695-4.355l-53.902-26.951-150.773 75.381c-7.85 3.931-16.477 5.896-25.092 5.896-8.615 0-17.23-1.965-25.092-5.885L80.135 224.699 26.221 251.65c-2.33 1.177-2.683 3.225-2.683 4.355 0 1.118.353 3.166 2.695 4.343L241.43 367.951c9.121 4.555 20.019 4.555 29.14-.012l215.209-107.592c2.33-1.177 2.683-3.225 2.683-4.343zm0 88.904c0-1.118-.353-3.178-2.683-4.331l-53.914-26.963-150.773 75.381c-7.85 3.931-16.477 5.896-25.092 5.896-8.615 0-17.23-1.965-25.092-5.885L80.135 313.614l-53.914 26.951c-2.33 1.165-2.683 3.225-2.683 4.343s.353 3.178 2.695 4.355L241.43 456.866c9.121 4.555 20.019 4.555 29.14-.012l215.209-107.592c2.33-1.177 2.683-3.236 2.683-4.354z" fill="#1e0478"/><path d="M485.767 162.735c2.342 1.177 2.695 3.225 2.695 4.355 0 1.118-.353 3.166-2.695 4.343L270.57 279.025c-9.121 4.566-20.019 4.566-29.14.012L26.233 171.432c-2.342-1.177-2.695-3.225-2.695-4.343 0-1.13.353-3.178 2.683-4.355L241.43 55.142A32.59 32.59 0 0 1 256 51.717a32.738 32.738 0 0 1 14.57 3.413l215.197 107.605z" fill="#94e7ef"/><path d="M485.767 251.65c2.342 1.177 2.695 3.225 2.695 4.355 0 1.118-.353 3.166-2.683 4.343L270.57 367.94c-9.121 4.566-20.019 4.566-29.14.012L26.233 260.347c-2.342-1.177-2.695-3.225-2.695-4.343 0-1.13.353-3.178 2.683-4.355l53.914-26.951 150.773 75.392c7.862 3.919 16.477 5.884 25.092 5.884 8.615 0 17.242-1.965 25.092-5.896l150.773-75.381 53.902 26.953z" fill="#9b8ccc"/><path d="M485.779 340.577c2.33 1.153 2.683 3.213 2.683 4.331s-.353 3.178-2.683 4.355L270.57 456.855c-9.121 4.566-20.019 4.566-29.14.012L26.233 349.262c-2.342-1.177-2.695-3.236-2.695-4.355s.353-3.178 2.683-4.343l53.914-26.951 150.773 75.392A56.275 56.275 0 0 0 256 394.89c8.615 0 17.242-1.965 25.092-5.896l150.773-75.381 53.914 26.964z" fill="#6f7ccd"/></svg>