<svg xmlns="http://www.w3.org/2000/svg" viewBox="0 0 512 512"><path d="M255.999 512C397 512 512 397 512 255.999 512 115 397 0 255.999 0 115 0 0 115 0 255.999 0 397 115 512 255.999 512z" fill="#ff757c"/><path d="M243.213 104.408h25.57l2.073 21.55 3.68 2.952 7.759 4.941L256 195.961l-26.293-62.11 7.759-4.941 3.68-2.95 2.07-21.55-.003-.002z" fill="#f0b97d"/><path d="M234.775 130.504l-21.193 6.764 42.414 58.69 36.087-60.662-14.973-4.745-13.187 9.307h-15.806l-13.342-9.354z" fill="#ecf0f1"/><path d="M251.265 139.004l1.812 4.469-4.026 50.932 6.947 5.318 6.947-5.318-4.026-50.932 1.812-4.469-4.734-.187-4.732.187z" fill="#ff5b61"/><path d="M235.139 130.387l-37.487 11.963s-4.853 2.522-6.319 10.195c-1.402 7.349-2.13 14.858-3.237 24.992 17.881 16.408 41.718 26.425 67.898 26.425s50.021-10.017 67.9-26.425c-1.109-10.133-1.834-17.643-3.237-24.992-1.466-7.673-6.319-10.195-6.319-10.195l-37.231-11.8-21.113 61.916-20.858-62.079h.003z" fill="#15bdb1"/><path d="M235.139 130.387l-8.085 2.582-1.554 20.516s.428 1.684 1.711 1.535l7.298 2.743s.478.478.051 1.083l-6.244 4.28 21.577 40.668a107.439 107.439 0 0 0 12.21 0l21.579-40.668-6.244-4.28c-.428-.604.053-1.083.053-1.083l7.296-2.743c1.283.15 1.713-1.535 1.713-1.535l-1.548-20.45-7.836-2.483-21.113 61.916-20.858-62.079-.006-.002z" fill="#20d0c2"/><path d="M226.218 60.58c0 2.002-.732 3.962-.677 5.887-6.853-1.272-3.543 19.078.333 21.879.309.223 1.065-.271 1.704-.681 1.343 7.485 12.821 27.49 20.117 35.908 2.028 2.337 14.422 2.3 16.426.09 7.477-8.228 18.937-28.467 20.289-35.996.639.41 1.398.904 1.704.681 3.878-2.798 7.188-23.151.335-21.879.055-1.925-.677-3.885-.677-5.887-.379-15.804-14.7-23.693-29.778-23.761-15.079.066-29.399 7.957-29.779 23.761l.003-.002z" fill="#fed198"/><path d="M235.401 40.322c-2.159-.251-9.966 2.139-10.903 10.398-.935 8.259-.487 15.868-.487 15.868s4.571 1.155 5.148 5.843c.575 4.687.165 4.687.165 4.687l1.656-.37 1.18-8.039c6.842-4.286-.051-10.636 6.791-12.122 18.479 13.169 34.786 10.916 42.139 4.721 0 0-1.718 6.48-.392 8.791 1.321 2.311.534 5.953.534 5.953l1.72-.082s-.313-9.545 3.504-9.501c14.499-23.938-31.399-53.672-51.051-26.145l-.004-.002z" fill="#666"/><path d="M240.964 122.88c.538.04-6.257 7.704-6.257 7.704l5.785 19.806 15.504-11.571c-8.528-4.185-13.621-9.609-15.032-15.939zm30.067 0c-.536.04 6.257 7.704 6.257 7.704l-5.783 19.806-15.509-11.571c8.533-4.185 13.624-9.609 15.035-15.939z" fill="#fff"/><path d="M247.561 105.078l4.24-2.886c1.303 1.217 7.369 1.197 8.667-.011l3.911 2.897c1.896 1.404 3.854 1.887 4.341 4.07l1.554 6.967c.487 2.185-3.836 9.529-6.218 9.529H247.24c-2.381 0-5.651-7.007-5.272-9.218l1.25-7.278c.381-2.209 2.387-2.736 4.343-4.07zm7.342 1.632l-8.228 4.321s.384 4.782 1.449 6.279c1.065 1.499 5.259-.287 5.259-.287s0-3.746 1.219-3.686c.009.002 2.732.002 2.743 0 1.217-.06 1.217 3.686 1.217 3.686s4.191 1.786 5.259.287c1.067-1.499 1.449-6.279 1.449-6.279l-8.228-4.321-1.067.3-1.065-.3h-.007z" fill="#666"/><path d="M201.026 118.962l25.197-5.73v4.33l-24.242 5.73c-.593.049-4.546 1.658-5.785 2.899a6.823 6.823 0 0 0-2.011 4.831c0 12.338.02 24.668.02 36.986h-4.354v-36.986c0-3.076 1.259-5.871 3.281-7.893 2.022-2.022 6.251-3.969 7.894-4.167z" fill="#ccc"/><path d="M211.664 113.966l19.449-4.099a3.019 3.019 0 0 1 3.567 2.324l.595 2.831a3.015 3.015 0 0 1-2.324 3.567l-19.449 4.101a3.018 3.018 0 0 1-3.565-2.324l-.598-2.831a3.02 3.02 0 0 1 2.324-3.567v-.002z" fill="#fbb429"/><path d="M192.01 158.927c5.766 0 10.442 4.674 10.442 10.442l-.002.068h-20.878l-.002-.068c0-5.766 4.672-10.442 10.44-10.442z" fill="#666"/><g fill="#fbb429"><path d="M159.579 167.944h192.839v14.131H159.579v-14.131z"/><path d="M184.655 182.073h142.686v90.213c-21.122 11.769-45.446 18.479-71.342 18.479-25.894 0-50.22-6.712-71.342-18.479v-90.213h-.002z"/></g><g fill="#f5a209"><path d="M159.579 182.073l25.076 15.892v-15.892h-25.076zm192.839 0l-25.078 15.892v-15.892h25.078z"/><path d="M184.655 182.073h142.686v6.002H184.655v-6.002z"/></g><path d="M157.423 283.522c0 1.632-.593 3.228-.551 4.791-9.035-4.941-.897 15.859 2.256 18.133.871.624 2.597-1.852 2.906-.794 2.377 8.217 5.128 12.801 8.25 16.741l-.708 7.366-2.999 2.403-6.317 4.024h42.816l-6.317-4.024-2.994-2.403-.708-7.366c3.118-3.94 5.869-8.524 8.248-16.741.306-1.058 2.033 1.42 2.904.794 3.153-2.273 11.291-23.074 2.253-18.133.046-1.563-.549-3.16-.549-4.791-.309-12.867-.706-26.279-24.244-26.335-23.539.055-23.938 13.467-24.244 26.335h-.002z" fill="#fed198"/><path d="M199.366 260.038c9.909-1.155 13.461 20.838 7.503 28.059l-8.683 26.048-5.894 5.924-20.628.09-5.973-4.899-8.819-26.945c-11.805-19.489 16.51-48.134 42.492-28.275l.002-.002z" fill="#666"/><path d="M164.686 333.364l-30.517 9.743s-3.953 2.053-5.146 8.301c-1.142 5.982-1.733 12.098-2.635 20.351h110.561l.002-.004c-.904-8.248-1.495-14.365-2.637-20.346-1.193-6.246-5.139-8.301-5.139-8.301l-30.314-9.609-34.171-.132-.004-.003z" fill="#15bdb1"/><path d="M169.946 324.212h23.523c1.36 0 2.013 1.078 2.476 2.196l2.91 7.091-34.173-.132 2.785-6.956c.452-1.131 1.116-2.196 2.476-2.196l.003-.003z" fill="#fff"/><path d="M306.084 283.522c0 1.632-.595 3.228-.551 4.791-9.035-4.941-.897 15.859 2.256 18.133.871.624 2.595-1.852 2.904-.794 2.379 8.217 5.128 12.801 8.25 16.741l-.706 7.366-3.001 2.403-6.317 4.024h42.816l-6.315-4.024-2.994-2.403-.708-7.366c3.118-3.94 5.869-8.524 8.248-16.741.306-1.058 2.035 1.42 2.904.794 3.153-2.273 11.291-23.074 2.253-18.133.044-1.563-.549-3.16-.549-4.791-.309-12.867-.706-26.279-24.247-26.335-23.538.055-23.934 13.467-24.243 26.335z" fill="#fed198"/><path d="M348.026 260.038c9.909-1.155 13.461 20.838 7.503 28.059l-8.685 26.048-5.896 5.924-20.626.09-5.973-4.899-8.819-26.945c-11.805-19.489 16.51-48.134 42.492-28.275l.004-.002z" fill="#666"/><path d="M313.347 333.364l-30.519 9.743s-3.951 2.053-5.144 8.301c-1.142 5.982-1.733 12.098-2.637 20.351h110.561l.002-.004c-.904-8.248-1.495-14.365-2.637-20.346-1.191-6.246-5.139-8.301-5.139-8.301l-30.314-9.609-34.171-.132-.002-.003z" fill="#15bdb1"/><path d="M318.607 324.212h23.523c1.363 0 2.013 1.078 2.476 2.196l2.908 7.091-34.171-.132 2.783-6.956c.454-1.131 1.116-2.196 2.478-2.196l.003-.003z" fill="#fff"/><path d="M74.473 335.466c0 2.05-.75 4.059-.695 6.026-11.362-6.215-1.129 19.941 2.838 22.8 1.096.789 3.265-2.328 3.651-.997 2.988 10.332 6.447 16.095 10.374 21.05l-.889 9.267-3.77 3.023-7.946 5.058h53.842l-7.942-5.058-3.766-3.023-.891-9.267c3.922-4.952 7.382-10.718 10.374-21.05.386-1.332 2.56 1.786 3.651.997 3.964-2.86 14.199-29.013 2.835-22.8.057-1.967-.69-3.975-.69-6.026-.39-16.186-.891-33.048-30.491-33.117-29.604.071-30.103 16.931-30.488 33.117h.003z" fill="#fed198"/><path d="M127.217 305.934c12.46-1.455 16.927 26.204 9.437 35.286l-10.918 32.753-7.415 7.452-25.938.112-7.51-6.16-11.09-33.888c-14.843-24.507 20.762-60.527 53.434-35.555z" fill="#666"/><path d="M83.605 398.142l-38.375 12.25s-4.967 2.584-6.471 10.44c-1.435 7.523-2.181 15.213-3.314 25.589H174.48l.002-.002c-1.135-10.374-1.881-18.064-3.318-25.587-1.499-7.856-6.462-10.44-6.462-10.44l-38.122-12.08-42.972-.168-.003-.002z" fill="#15bdb1"/><path d="M90.222 386.631h29.582c1.715 0 2.533 1.358 3.115 2.765l3.658 8.916-42.974-.168 3.501-8.747c.569-1.422 1.402-2.765 3.115-2.765l.003-.001z" fill="#fff"/><path d="M225.51 335.466c0 2.05-.75 4.059-.695 6.026-11.362-6.215-1.131 19.941 2.838 22.8 1.094.789 3.265-2.328 3.651-.997 2.99 10.332 6.449 16.095 10.374 21.05l-.889 9.267-3.77 3.023-7.946 5.058h53.842l-7.942-5.058-3.766-3.023-.891-9.267c3.922-4.952 7.384-10.718 10.372-21.05.386-1.332 2.56 1.786 3.651.997 3.964-2.86 14.199-29.013 2.835-22.8.055-1.967-.692-3.975-.692-6.026-.388-16.186-.889-33.048-30.488-33.117-29.6.071-30.1 16.931-30.486 33.117h.002z" fill="#fed198"/><path d="M278.252 305.934c12.46-1.455 16.927 26.204 9.439 35.286l-10.921 32.753-7.413 7.452-25.938.112-7.512-6.16-11.09-33.888c-14.842-24.507 20.764-60.527 53.435-35.555z" fill="#666"/><path d="M234.641 398.142l-38.377 12.25s-4.967 2.584-6.471 10.44c-1.433 7.523-2.181 15.213-3.314 25.589h139.035l.002-.002c-1.133-10.374-1.881-18.064-3.318-25.587-1.497-7.856-6.462-10.44-6.462-10.44l-38.122-12.08-42.972-.168v-.002z" fill="#15bdb1"/><path d="M241.257 386.631h29.582c1.715 0 2.536 1.358 3.115 2.765l3.658 8.916-42.972-.168 3.501-8.747c.569-1.422 1.402-2.765 3.113-2.765l.003-.001z" fill="#fff"/><path d="M376.544 335.466c0 2.05-.747 4.059-.695 6.026-11.362-6.215-1.129 19.941 2.838 22.8 1.096.789 3.265-2.328 3.651-.997 2.988 10.332 6.449 16.095 10.376 21.05l-.889 9.267-3.77 3.023-7.946 5.058h53.842l-7.94-5.058-3.768-3.023-.891-9.267c3.922-4.952 7.384-10.718 10.374-21.05.384-1.332 2.56 1.786 3.651.997 3.969-2.86 14.199-29.013 2.835-22.8.057-1.967-.69-3.975-.69-6.026-.388-16.186-.889-33.048-30.488-33.117-29.6.071-30.1 16.931-30.488 33.117h-.002z" fill="#fed198"/><path d="M429.286 305.934c12.462-1.455 16.929 26.204 9.439 35.286l-10.921 32.753-7.413 7.452-25.938.112-7.512-6.16-11.088-33.888c-14.847-24.507 20.761-60.527 53.433-35.555z" fill="#666"/><path d="M385.676 398.142l-38.377 12.25s-4.967 2.584-6.467 10.44c-1.438 7.523-2.183 15.213-3.316 25.589h139.035l.002-.002c-1.133-10.374-1.879-18.064-3.316-25.587-1.499-7.856-6.465-10.44-6.465-10.44l-38.122-12.08-42.97-.168-.004-.002z" fill="#15bdb1"/><path d="M392.293 386.631h29.58c1.715 0 2.533 1.358 3.115 2.765l3.66 8.916-42.974-.168 3.501-8.747c.569-1.422 1.402-2.765 3.115-2.765l.003-.001z" fill="#fff"/></svg>