<svg xmlns="http://www.w3.org/2000/svg" viewBox="0 0 512 512"><path d="M255.996 512c-68.38 0-132.667-26.629-181.02-74.98-5.669-5.669-5.669-14.862 0-20.533 5.669-5.668 14.862-5.668 20.533 0 42.867 42.867 99.863 66.476 160.488 66.476s117.62-23.609 160.488-66.476S482.96 316.624 482.96 256s-23.608-117.62-66.476-160.488-99.864-66.476-160.488-66.476-117.62 23.609-160.487 66.476c-57.256 57.256-79.728 141.45-58.65 219.728 2.085 7.742-2.501 15.708-10.244 17.795-7.74 2.083-15.708-2.501-17.793-10.244-11.502-42.713-11.757-87.936-.736-130.785 11.355-44.152 34.486-84.62 66.892-117.025C123.328 26.629 187.616 0 255.996 0s132.667 26.629 181.02 74.98c48.352 48.352 74.98 112.639 74.98 181.02s-26.629 132.668-74.98 181.02C388.663 485.371 324.376 512 255.996 512z" fill="#b3404a"/><path d="M255.996 82.472c-95.836 0-173.528 77.69-173.528 173.528s77.692 173.528 173.528 173.528S429.524 351.838 429.524 256 351.832 82.472 255.996 82.472zm-63.153 163.365c-13.23 0-23.955-15.817-23.955-35.327 0-19.511 10.724-35.327 23.955-35.327 13.23 0 23.955 15.817 23.955 35.327s-10.726 35.327-23.955 35.327zm126.306 0c-13.23 0-23.955-15.817-23.955-35.327 0-19.511 10.724-35.327 23.955-35.327S343.104 191 343.104 210.51s-10.726 35.327-23.955 35.327z" fill="#f4b2b0"/><g fill="#b3404a"><path d="M255.996 444.044C152.307 444.044 67.95 359.689 67.95 256S152.307 67.956 255.996 67.956 444.042 152.311 444.042 256s-84.357 188.044-188.046 188.044zm0-347.052c-87.678 0-159.01 71.331-159.01 159.008s71.331 159.008 159.01 159.008S415.006 343.677 415.006 256 343.673 96.992 255.996 96.992zm63.153 163.363c-21.574 0-38.473-21.895-38.473-49.846 0-27.95 16.899-49.845 38.473-49.845s38.473 21.895 38.473 49.845c0 27.952-16.899 49.846-38.473 49.846zm0-70.654c-3.24 0-9.437 8.104-9.437 20.809 0 12.706 6.196 20.81 9.437 20.81s9.437-8.104 9.437-20.81c0-12.705-6.196-20.809-9.437-20.809zm-126.306 70.654c-21.574 0-38.473-21.895-38.473-49.846 0-27.95 16.899-49.845 38.473-49.845s38.473 21.895 38.473 49.845c0 27.952-16.899 49.846-38.473 49.846zm0-70.654c-3.24 0-9.437 8.104-9.437 20.809 0 12.706 6.196 20.81 9.437 20.81s9.437-8.104 9.437-20.81c0-12.705-6.197-20.809-9.437-20.809z"/><path d="M313.101 358.195a14.468 14.468 0 0 1-10.457-4.447c-12.321-12.79-28.888-19.834-46.648-19.834s-34.328 7.044-46.648 19.834c-5.563 5.774-14.755 5.947-20.528.385-5.775-5.563-5.947-14.753-.385-20.528 17.846-18.525 41.838-28.727 67.561-28.727s49.715 10.202 67.561 28.727c5.563 5.775 5.391 14.965-.385 20.528a14.47 14.47 0 0 1-10.071 4.062z"/></g></svg>