<svg xmlns="http://www.w3.org/2000/svg" viewBox="0 0 512 512"><circle cx="256" cy="256" r="256" fill="#0575a5"/><path d="M510.4 284.329L380.337 154.26l-.218-.218H131.656v203.116l.765.768 152.41 152.415c118.505-13.286 212.51-107.438 225.569-226.012z" fill="#025e90"/><path fill="#a6b83d" d="M131.661 213.811h248.678v144.128H131.661z"/><path fill="#c1d354" d="M131.661 207.153h248.678v144.154H131.661z"/><path fill="#a6b83d" d="M131.661 200.525h248.678v144.154H131.661z"/><path fill="#c1d354" d="M131.661 193.894h248.678v144.154H131.661z"/><path fill="#a6b83d" d="M131.661 187.238h248.678v144.179H131.661z"/><path fill="#c1d354" d="M131.661 180.608h248.678v144.154H131.661z"/><path fill="#a6b83d" d="M131.661 173.975h248.678v144.128H131.661z"/><path fill="#c1d354" d="M131.661 167.322h248.678v144.179H131.661z"/><path fill="#a6b83d" d="M131.661 160.691h248.678V304.87H131.661z"/><path fill="#c1d354" d="M380.337 154.058v144.136h-203.52l-45.161-45.138v-98.998z"/><g fill="#a6b83d"><path d="M255.992 180.618c-21.54 0-39.007 20.36-39.007 45.509 0 25.137 17.467 45.519 39.007 45.519 21.555 0 39.025-20.383 39.025-45.519 0-25.149-17.469-45.509-39.025-45.509zm2.501 68.245v5.829h-4.017v-5.829c-6.643-.422-11.707-3.195-14.994-6.912l3.287-4.242c2.493 2.97 6.51 5.604 11.707 6.205v-16.003c-6.694-1.843-13.624-4.091-13.624-12.186 0-6.799 5.737-11.599 13.624-12.17v-5.983h4.017v6.047c5.463.448 9.818 2.711 13.038 6.047l-3.279 4.017c-2.652-2.893-6.065-4.536-9.759-5.084v14.377c6.802 1.892 14.024 4.429 14.024 13.007 0 5.968-3.819 12.125-14.024 12.88z"/><path d="M258.493 228.954v15.05c6.252-.689 8.371-4.419 8.371-7.593.001-4.306-3.757-6.062-8.371-7.457zm-11.988-13.563c0 3.615 3.489 5.22 7.972 6.52v-13.422c-4.667.32-7.972 3.095-7.972 6.902z"/><path d="M338.501 161.539H139.139v98.957l7.447 7.485v-71.342c6.589-.463 13.289-3.676 18.647-9.011 5.32-5.312 8.512-12.157 8.991-18.668h163.558c.481 6.51 3.671 13.356 8.988 18.668 5.358 5.335 12.058 8.548 18.642 9.011v59.005c-6.584.443-13.284 3.656-18.642 9.001-5.317 5.309-8.504 12.142-8.988 18.647H161.897l7.473 7.442h203.487V161.538h-34.356z"/></g><path fill="#d0e070" d="M176.817 253.056v45.138l-45.161-45.138z"/></svg>