<svg xmlns="http://www.w3.org/2000/svg" viewBox="0 0 512 512"><circle cx="256" cy="256" r="256" fill="#2196f3"/><path d="M511.716 267.195L387.661 143.137H172.692l-24.174 24.174-24.172 24.21v129.536h.036l185.247 185.27c112.103-23.903 197.005-121.157 202.087-239.132z" fill="#025e90"/><path fill="#fff" d="M124.344 191.506v129.536h157.087l47.8 47.813v-47.813h58.425V143.137H172.703z"/><path fill="#e1effa" d="M124.344 239.859l48.359-48.353-24.169-24.197-24.19 24.197z"/><path fill="#ff8e31" d="M172.703 191.506h-48.359l48.359-48.369z"/><g fill="#5d6d7e"><path d="M257.518 299.382h-75.182a1.057 1.057 0 0 1-1.062-1.06 1.07 1.07 0 0 1 1.062-1.068h75.182c.584 0 1.06.481 1.06 1.068 0 .596-.479 1.06-1.06 1.06z"/><path d="M217.359 287.841l15.485-26.954-13.14-13.141-26.962 15.468c.177 11.715-3.182 23.493-10.099 33.556-.102.028-.197.069-.243.125a.384.384 0 0 0 0 .556.38.38 0 0 0 .543.008l22.551-23.59a1.951 1.951 0 0 1 .481-1.994 1.904 1.904 0 0 1 2.742 0c.755.737.755 1.994.013 2.744a1.892 1.892 0 0 1-2.002.474l-23.611 22.551a.44.44 0 0 0 .005.576.434.434 0 0 0 .571 0c.084-.074.097-.174.128-.266 10.045-6.936 21.806-10.302 33.538-10.113z"/></g><path d="M183.826 297.951c-.031.069-.046.189-.11.253a.425.425 0 0 1-.586 0 .406.406 0 0 1-.005-.563l23.611-22.551a1.907 1.907 0 0 0 1.994-.479c.748-.745.748-2.002-.008-2.739l17.572-17.559 6.523 6.556-15.457 26.975c-11.695-.184-23.494 3.174-33.534 10.107z" fill="#34495e"/><path d="M321.592 175.78a16.759 16.759 0 0 0-4.92-11.876 16.738 16.738 0 0 0-11.876-4.915 16.746 16.746 0 0 0-11.878 4.915l-60.093 60.104 23.736 23.736 60.285-60.265c3.044-3.034 4.744-7.063 4.746-11.699z" fill="#ff8e31"/><path d="M256.036 207.99a2.039 2.039 0 0 1 0-2.88l27.172-27.172a2.017 2.017 0 0 1 2.872 0 2.032 2.032 0 0 1 0 2.885l-27.162 27.167a2.056 2.056 0 0 1-2.882 0zm42.327-41.339a2.206 2.206 0 0 1-.407-.576 2.052 2.052 0 0 1 .97-2.719 13.685 13.685 0 0 1 5.873-1.313c3.666 0 7.119 1.418 9.713 4.017.794.794.794 2.079.008 2.88a2.04 2.04 0 0 1-2.888.005 9.545 9.545 0 0 0-6.833-2.844 9.595 9.595 0 0 0-4.129.942 2.031 2.031 0 0 1-2.307-.392z" fill="#ffc87c"/><path fill="#ff9d4d" d="M233.654 261.683l-14.743-14.738 15.992-20.851 19.602 19.594z"/><path fill="#34495e" d="M311.629 192.694l-23.752-23.747 2.88-2.887 23.752 23.759z"/><path fill="#f28124" d="M252.052 247.557l2.453-1.869-19.602-19.594-1.876 2.437z"/><path d="M290.757 166.06l-.701-.709a6.065 6.065 0 0 0-4.332-1.784 6.085 6.085 0 0 0-4.326 1.812l-23.404 23.626c-.794.781-.786 2.079.005 2.872h.003a2.034 2.034 0 0 0 2.88-.013l23.411-23.619a1.992 1.992 0 0 1 1.441-.604c.548 0 1.06.205 1.444.596l.701.709 2.878-2.886z" fill="#5d6d7e"/></svg>