<svg xmlns="http://www.w3.org/2000/svg" viewBox="0 0 512 512"><circle cx="256" cy="256" r="256" fill="#9c27b0"/><path d="M508.813 296.32L380.227 167.744a8.311 8.311 0 0 0-5.924-2.445H137.69a8.31 8.31 0 0 0-5.924 2.445 8.319 8.319 0 0 0-2.452 5.932v151.222c0 2.12.804 4.273 2.452 5.926a8.306 8.306 0 0 0 5.924 2.442h-35.697c-.366 0-.727.148-.988.407a1.432 1.432 0 0 0-.438 1.019v3.517h.036l2.268 2.263 170.844 170.844c119.624-8.179 216.658-98.485 235.098-214.996z" fill="#025e90"/><path d="M382.687 324.882a8.37 8.37 0 0 1-2.447 5.926c-1.641 1.654-3.786 2.458-5.939 2.458H137.69a8.324 8.324 0 0 1-5.939-2.458 8.39 8.39 0 0 1-2.447-5.926V173.676c0-2.156.822-4.298 2.447-5.934a8.49 8.49 0 0 1 5.939-2.445H374.3a8.45 8.45 0 0 1 5.939 2.445 8.382 8.382 0 0 1 2.447 5.934v151.206z" fill="#34495e"/><path fill="#e1effa" d="M142.492 178.483h226.995v141.619H142.492z"/><path fill="#fff" d="M149.35 185.318h213.299v127.9H149.35z"/><path d="M258.852 171.878a2.862 2.862 0 0 1-2.852 2.857 2.85 2.85 0 0 1-2.847-2.857 2.825 2.825 0 0 1 2.847-2.836 2.835 2.835 0 0 1 2.852 2.836z" fill="#283a4d"/><path d="M257.16 171.878c0 .648-.52 1.18-1.16 1.18a1.171 1.171 0 0 1-1.162-1.18c0-.632.517-1.139 1.162-1.139.64 0 1.16.507 1.16 1.139z" fill="#5d6d7e"/><path d="M411.43 338.186c-4.521 5.21-11.203 8.515-18.647 8.515H119.209c-7.444 0-14.124-3.305-18.639-8.515h310.86z" fill="#e1effa"/><path d="M411.423 338.196H100.572v-3.517a1.413 1.413 0 0 1 1.413-1.413H410.01c.366 0 .719.138.998.407.274.282.415.648.415 1.006v3.517z" fill="#fff"/><path d="M284.864 334.106c0 .412-.161.845-.492 1.175a1.684 1.684 0 0 1-1.172.479h-54.403c-.428 0-.858-.164-1.175-.479a1.702 1.702 0 0 1-.492-1.175v-.837h57.738v.837h-.004z" fill="#b8d1e6"/><path d="M219.19 237.248l-4.288 4.283-31.409 31.409a7.016 7.016 0 0 1 4.091 4.055l4.26-4.26 27.146-27.141 4.26-4.257a7.057 7.057 0 0 1-4.06-4.089zm44.562 31.404l4.293 4.288a7.076 7.076 0 0 0-4.114 4.037l-4.234-4.265-27.116-27.116-4.268-4.257a7.085 7.085 0 0 0 4.058-4.091l4.265 4.262 27.116 27.142zm64.714-42.97l-4.26 4.257-42.803 42.798-4.232 4.242c-.75-1.882-2.214-3.343-4.091-4.037l4.255-4.288 42.811-42.806 4.296-4.288c.658 1.867 2.155 3.369 4.024 4.122z" fill="#34495e"/><path d="M191.844 272.735a12.252 12.252 0 0 0-4.058-4.083 12.727 12.727 0 0 0-6.792-1.961c-7.084 0-12.838 5.763-12.838 12.844 0 7.05 5.755 12.805 12.838 12.805 7.081 0 12.838-5.755 12.838-12.805a12.506 12.506 0 0 0-1.988-6.8zm-10.852 13.849c-3.919 0-7.084-3.167-7.084-7.05a7.072 7.072 0 0 1 7.084-7.081c.893 0 1.725.169 2.501.484a7.016 7.016 0 0 1 4.091 4.055c.32.778.489 1.649.489 2.54 0 3.886-3.197 7.052-7.081 7.052zm44.795-64.681c-7.078 0-12.841 5.757-12.841 12.838 0 2.506.719 4.838 1.956 6.792a12.263 12.263 0 0 0 4.091 4.063c1.956 1.275 4.288 1.984 6.794 1.984 2.473 0 4.833-.709 6.794-1.984 1.669-1.009 3.044-2.419 4.055-4.083a12.697 12.697 0 0 0 1.953-6.771c0-7.084-5.752-12.839-12.802-12.839zm2.529 19.436a6.756 6.756 0 0 1-2.529.479 6.738 6.738 0 0 1-2.534-.479 7.062 7.062 0 0 1-4.063-4.091 6.675 6.675 0 0 1-.481-2.506 7.075 7.075 0 0 1 7.078-7.084c3.884 0 7.05 3.169 7.05 7.084 0 .891-.141 1.731-.463 2.506-.717 1.869-2.184 3.372-4.058 4.091zm53.087 31.396c-1.011-1.661-2.422-3.049-4.068-4.083a12.699 12.699 0 0 0-6.789-1.961c-2.501 0-4.833.727-6.792 1.961-1.636 1.006-3.023 2.419-4.058 4.06a12.607 12.607 0 0 0-1.984 6.822c0 7.05 5.755 12.805 12.836 12.805 7.084 0 12.838-5.755 12.838-12.805a12.56 12.56 0 0 0-1.983-6.799zm-10.857 13.849c-3.886 0-7.081-3.167-7.081-7.05 0-.893.172-1.787.466-2.557a7.073 7.073 0 0 1 4.114-4.037 6.692 6.692 0 0 1 2.501-.484c.893 0 1.756.169 2.534.484 1.874.694 3.341 2.156 4.091 4.037.284.771.458 1.664.458 2.557-.002 3.884-3.164 7.05-7.083 7.05zM331 206.213c-7.055 0-12.81 5.76-12.81 12.836 0 2.511.719 4.838 1.956 6.799 1.037 1.636 2.419 3.054 4.06 4.091a12.74 12.74 0 0 0 6.794 1.953c7.081 0 12.838-5.76 12.838-12.844.001-7.075-5.757-12.835-12.838-12.835zm0 19.919a7.447 7.447 0 0 1-2.534-.451c-1.866-.75-3.364-2.255-4.024-4.122a6.537 6.537 0 0 1-.494-2.511c0-3.884 3.169-7.076 7.055-7.076 3.912 0 7.081 3.192 7.081 7.076a7.074 7.074 0 0 1-7.084 7.084z" fill="#ff8e31"/></svg>