<svg xmlns="http://www.w3.org/2000/svg" viewBox="0 0 512.002 512.002"><circle cx="256.001" cy="256" r="256" fill="#324a5e"/><path d="M503.693 320.895L291.394 108.596l-51.079 44.947-21.09 21.673 33.904 33.904v19.871h-110.33l-9.625 9.625v94.441l-35.376 26.109 153.765 152.779c1.477.026 2.955.057 4.437.057 118.962-.002 218.963-81.148 247.693-191.107z" fill="#2b3b4e"/><path d="M355.446 224.108h-94.274v-63.354h-10.343v63.354h-94.273c-15.031 0-27.262 12.791-27.262 28.515v83.539h10.343v-83.539c0-10.019 7.589-18.172 16.918-18.172h94.273v96.97h10.343v-96.97h94.274c9.33 0 16.918 8.152 16.918 18.172v83.539h10.343v-83.539c.002-15.724-12.229-28.515-27.26-28.515z" fill="#e9eff4"/><path d="M355.446 224.108h-94.274v-63.354h-5.746v170.667h5.746v-96.97h94.274c9.33 0 16.918 8.152 16.918 18.172v83.539h10.343v-83.539c.001-15.724-12.23-28.515-27.261-28.515z" fill="#cfdbe6"/><circle cx="256.001" cy="142.653" r="49.131" fill="#f9b54c"/><path d="M256.001 93.522c-.193 0-.383.012-.574.014v98.233c.191.002.381.014.574.014 27.134 0 49.131-21.997 49.131-49.131s-21.997-49.13-49.131-49.13z" fill="#f4a200"/><circle cx="132.311" cy="325.387" r="48.269" fill="#fd8469"/><path d="M132.311 277.118c26.658 0 48.269 21.611 48.269 48.269 0 26.658-21.611 48.269-48.269 48.269v-96.538z" fill="#fc6f58"/><circle cx="256.001" cy="325.387" r="48.269" fill="#fd8469"/><path d="M256.001 277.118c-.193 0-.383.012-.574.014v96.509c.191.002.381.014.574.014 26.659 0 48.269-21.611 48.269-48.269s-21.611-48.268-48.269-48.268z" fill="#fc6f58"/><circle cx="379.691" cy="325.387" r="48.269" fill="#fd8469"/><path d="M379.691 277.118c26.658 0 48.269 21.611 48.269 48.269 0 26.658-21.611 48.269-48.269 48.269v-96.538z" fill="#fc6f58"/></svg>