<svg xmlns="http://www.w3.org/2000/svg" viewBox="0 0 512 512"><circle cx="256" cy="256" r="256" fill="#273b7a"/><path d="M260.336 511.945c132.52-2.203 240.533-105.084 250.851-235.477L373.351 138.636l-50.231 68.629-105.161-105.162-22.007 28.913 88.493 88.493-47.881 42.71-70.971-70.971-65.531 24.74 93.16 92.584-53.332 83.22 120.446 120.153z" fill="#121149"/><path d="M267.685 396.909V241.05H134.72v138.399c0 9.644 7.816 17.46 17.46 17.46h27.503c3.624 0 5.808-4.127 3.658-7.046a22.01 22.01 0 0 1-4.299-13.102c0-12.609 10.53-22.757 23.273-22.133 11.3.552 20.549 9.868 21.028 21.173a22.018 22.018 0 0 1-4.298 14.088c-2.145 2.901.072 7.02 3.682 7.02h44.958z" fill="#ffc61b"/><path d="M201.411 241.05v113.581c.302.003.6-.017.905-.003 11.3.553 20.549 9.868 21.028 21.173a22.018 22.018 0 0 1-4.298 14.088c-2.145 2.901.072 7.02 3.681 7.02h44.958V241.05h-66.274z" fill="#eaa22f"/><path d="M223.161 134.025V266.99H361.56c9.644 0 17.46-7.818 17.46-17.46v-27.503c0-3.624-4.127-5.808-7.046-3.658a22.01 22.01 0 0 1-13.102 4.299c-12.609 0-22.757-10.528-22.133-23.273.552-11.3 9.868-20.549 21.173-21.028A22.018 22.018 0 0 1 372 182.665c2.901 2.145 7.02-.072 7.02-3.682v-27.498c0-9.644-7.816-17.46-17.46-17.46H223.161z" fill="#fee187"/><path d="M357.912 178.367A22.018 22.018 0 0 1 372 182.665c2.901 2.145 7.02-.072 7.02-3.681v-27.5c0-9.644-7.816-17.46-17.46-17.46h-49.245V266.99h49.245c9.644 0 17.46-7.816 17.46-17.46v-27.503c0-3.625-4.127-5.808-7.046-3.658a22.01 22.01 0 0 1-13.102 4.299c-12.609 0-22.757-10.53-22.133-23.273.554-11.301 9.869-20.548 21.173-21.028z" fill="#ffc61b"/><path d="M246.574 178.367a22.018 22.018 0 0 1 14.088 4.298c2.901 2.145 7.02-.072 7.02-3.682v-27.498c0-9.644-7.818-17.46-17.46-17.46H224.44c-3.393 0-5.598-3.655-3.929-6.608 2.179-3.855 3.236-8.426 2.719-13.279-1.088-10.202-9.314-18.47-19.511-19.596-13.367-1.474-24.681 8.952-24.681 22.021 0 3.949 1.036 7.651 2.85 10.857 1.669 2.951-.538 6.603-3.929 6.603h-25.783c-9.644 0-17.46 7.818-17.46 17.46v26.591c0 3.55-3.917 5.661-6.906 3.746-3.817-2.445-8.433-3.75-13.376-3.429-11.104.722-20.125 9.914-20.656 21.026-.607 12.733 9.537 23.247 22.135 23.247a21.99 21.99 0 0 0 11.995-3.539c2.934-1.901 6.809.319 6.809 3.815v26.586c0 9.644 7.816 17.46 17.46 17.46h98.045c9.644 0 17.46-7.818 17.46-17.46v-27.503c0-3.624-4.127-5.808-7.046-3.658a22.01 22.01 0 0 1-13.102 4.299c-12.609 0-22.757-10.528-22.133-23.273.553-11.297 9.867-20.544 21.173-21.024z" fill="#eaa22f"/><path d="M246.574 178.367a22.018 22.018 0 0 1 14.088 4.298c2.901 2.145 7.02-.072 7.02-3.681v-27.5c0-9.644-7.816-17.46-17.46-17.46H224.44c-3.393 0-5.598-3.655-3.929-6.608 2.179-3.855 3.236-8.425 2.719-13.279-1.088-10.202-9.314-18.47-19.511-19.594a22.834 22.834 0 0 0-2.307-.129v172.577h48.811c9.644 0 17.46-7.816 17.46-17.46v-27.503c0-3.625-4.127-5.808-7.046-3.658a22.01 22.01 0 0 1-13.102 4.299c-12.609 0-22.757-10.53-22.133-23.273.552-11.302 9.866-20.549 21.172-21.029z" fill="#e09112"/><path d="M334.286 375.801a22.018 22.018 0 0 1-4.298 14.088c-2.145 2.901.072 7.02 3.682 7.02h27.498c9.644 0 17.46-7.818 17.46-17.46v-25.781c0-3.393 3.655-5.598 6.608-3.929 3.855 2.179 8.426 3.236 13.279 2.719 10.202-1.088 18.47-9.314 19.596-19.511 1.474-13.367-8.952-24.681-22.021-24.681a21.971 21.971 0 0 0-10.857 2.85c-2.951 1.669-6.603-.538-6.603-3.929v-25.784c0-9.644-7.818-17.46-17.46-17.46h-26.595c-3.55 0-5.661-3.917-3.746-6.906 2.446-3.817 3.75-8.433 3.429-13.376-.722-11.104-9.914-20.125-21.026-20.656-12.733-.607-23.247 9.537-23.247 22.135a21.99 21.99 0 0 0 3.539 11.995c1.901 2.934-.319 6.809-3.815 6.809h-26.586c-9.644 0-17.46 7.818-17.46 17.46v98.045c0 9.644 7.816 17.46 17.46 17.46h27.503c3.624 0 5.808-4.127 3.658-7.046a22.01 22.01 0 0 1-4.299-13.102c0-12.609 10.528-22.757 23.273-22.133 11.3.553 20.549 9.869 21.028 21.173z" fill="#ff5419"/><path d="M396.088 308.265a21.983 21.983 0 0 0-10.857 2.851c-2.951 1.67-6.603-.538-6.603-3.929v-25.783c0-9.644-7.816-17.46-17.46-17.46h-26.593c-3.55 0-5.661-3.917-3.746-6.906 2.444-3.817 3.75-8.433 3.429-13.377-.722-11.104-9.912-20.125-21.026-20.656-.116-.005-.226.005-.341.002v131.624c.124.003.243-.007.369-.002 11.3.553 20.549 9.868 21.028 21.173a22.018 22.018 0 0 1-4.298 14.088c-2.145 2.901.072 7.02 3.681 7.02h27.498c9.644 0 17.46-7.816 17.46-17.46v-25.78c0-3.393 3.655-5.599 6.608-3.929 3.855 2.179 8.426 3.236 13.279 2.719 10.202-1.088 18.47-9.314 19.596-19.511 1.471-13.371-8.955-24.684-22.024-24.684z" fill="#c92f00"/></svg>