<svg xmlns="http://www.w3.org/2000/svg" viewBox="0 0 512 512"><circle cx="256" cy="256" r="256" fill="#273b7a"/><path d="M154.721 355.837L305.99 507.106c101.283-20.051 181.067-99.837 201.118-201.119L357.136 156.015 154.721 355.837z" fill="#121149"/><circle cx="256" cy="256" r="142.222" fill="#ffc61b"/><path d="M398.222 256c0-78.546-63.674-142.222-142.222-142.222v284.444c78.548 0 142.222-63.676 142.222-142.222z" fill="#eaa22f"/><circle cx="199.111" cy="227.556" r="28.444" fill="#ffedb5"/><circle cx="199.111" cy="227.556" r="14.222" fill="#272525"/><circle cx="312.889" cy="227.556" r="28.444" fill="#ffedb5"/><circle cx="312.889" cy="227.556" r="14.222" fill="#272525"/><path d="M318.919 335.46a6.895 6.895 0 0 1-6.592-4.882c-7.058-23.104-30.222-39.238-56.329-39.238-26.105 0-49.268 16.134-56.329 39.238a6.895 6.895 0 1 1-13.188-4.03c8.818-28.85 37.405-48.999 69.517-48.999 32.116 0 60.702 20.149 69.516 48.999a6.895 6.895 0 0 1-6.595 8.912z" fill="#c92f00"/><path d="M325.516 326.547c-8.816-28.85-37.402-48.999-69.518-48.999-.191 0-.381.01-.572.01v13.802c.191-.002.381-.022.572-.022 26.107 0 49.269 16.134 56.329 39.238a6.895 6.895 0 1 0 13.189-4.029z" fill="#930000"/></svg>